<svg version="1.1" xmlns="http://www.w3.org/2000/svg" viewBox="0 0 964 878" width="964" height="878">
  <!-- svg-source:excalidraw -->
  
  <defs>
    <style class="style-fonts">
      @font-face {
        font-family: "Virgil";
        src: url("https://unpkg.com/@excalidraw/excalidraw@0.14.1/dist/excalidraw-assets/Virgil.woff2");
      }
      @font-face {
        font-family: "Cascadia";
        src: url("https://unpkg.com/@excalidraw/excalidraw@0.14.1/dist/excalidraw-assets/Cascadia.woff2");
      }
    </style>
  </defs>
  <rect x="0" y="0" width="964" height="878" fill="#ffffff"></rect><g stroke-linecap="round" transform="translate(10 10) rotate(0 472 429)"><path d="M7.86 8.16 C7.86 8.16, 7.86 8.16, 7.86 8.16 M7.86 8.16 C7.86 8.16, 7.86 8.16, 7.86 8.16 M3.66 19.09 C9.08 14.5, 12.02 11.55, 18.1 2.48 M3.66 19.09 C9.11 13.26, 14.66 7.89, 18.1 2.48 M2.75 26.24 C11.35 14.95, 17.71 7.86, 24.4 1.33 M2.75 26.24 C7.39 20.38, 12.23 15.07, 24.4 1.33 M1.83 33.39 C10.46 24.73, 16.11 16.16, 30.7 0.18 M1.83 33.39 C8.46 26.07, 15.52 17.37, 30.7 0.18 M1.57 39.79 C12.81 24.8, 26.34 12.01, 34.37 2.05 M1.57 39.79 C10.78 29.49, 21.18 18.16, 34.37 2.05 M1.96 45.43 C15.53 29.42, 29.33 13.14, 39.36 2.41 M1.96 45.43 C12.85 32.42, 24 20.77, 39.36 2.41 M1.7 51.83 C17.16 34.1, 34.3 15.29, 45 2.02 M1.7 51.83 C13.1 37.41, 24.47 24.9, 45 2.02 M1.44 58.23 C19.2 35.53, 40.14 13.75, 49.99 2.38 M1.44 58.23 C11.35 46.1, 23.1 32.12, 49.99 2.38 M1.83 63.87 C20.01 42.78, 43.15 17.33, 55.63 1.98 M1.83 63.87 C19.82 44.59, 36.05 25.7, 55.63 1.98 M1.57 70.27 C17.81 49.62, 36.82 30.91, 60.62 2.34 M1.57 70.27 C19.9 49.76, 36.34 30.29, 60.62 2.34 M1.97 75.91 C19.13 55.7, 38.06 33.66, 66.26 1.95 M1.97 75.91 C20 55.06, 38.11 34.16, 66.26 1.95 M1.71 82.31 C18.13 62.51, 36.24 40.98, 71.25 2.31 M1.71 82.31 C29.19 50.96, 56.69 20.57, 71.25 2.31 M1.44 88.71 C26.87 62.08, 51.64 32.4, 76.89 1.91 M1.44 88.71 C27.94 58.71, 51.95 30.74, 76.89 1.91 M1.84 94.35 C21.79 72.11, 40.4 46.85, 81.88 2.27 M1.84 94.35 C25.51 69.65, 46.04 43.19, 81.88 2.27 M1.58 100.75 C29.89 71.11, 59.21 36.93, 87.52 1.88 M1.58 100.75 C31.56 66.49, 61.1 31.58, 87.52 1.88 M1.97 106.39 C28.38 73.69, 58.08 43.29, 92.51 2.24 M1.97 106.39 C35.56 66.8, 69.22 27.71, 92.51 2.24 M1.71 112.79 C23.31 88.01, 45.5 65.06, 98.15 1.85 M1.71 112.79 C34.49 73.84, 69.07 35.35, 98.15 1.85 M1.45 119.19 C25.92 93.91, 48.27 66.22, 103.14 2.21 M1.45 119.19 C23.19 95.63, 43.75 71.33, 103.14 2.21 M1.84 124.83 C40.26 77.08, 83.24 29.59, 108.78 1.81 M1.84 124.83 C28.24 94.99, 55.53 63.23, 108.78 1.81 M1.58 131.23 C24.84 101.58, 50.92 72.91, 113.77 2.17 M1.58 131.23 C38.71 89.37, 74.19 48.57, 113.77 2.17 M1.98 136.87 C29.32 104.77, 59.55 72.07, 119.41 1.78 M1.98 136.87 C35.43 100.19, 67.49 62.41, 119.41 1.78 M1.72 143.27 C41.62 100.45, 78.07 60.36, 124.4 2.14 M1.72 143.27 C44.69 93.8, 88.11 44.57, 124.4 2.14 M1.45 149.67 C38.74 108.53, 76.53 65.71, 130.04 1.74 M1.45 149.67 C53 92.45, 102.45 35.32, 130.04 1.74 M1.85 155.31 C44.45 103.22, 91.07 51.61, 135.03 2.1 M1.85 155.31 C29.64 122.73, 56.83 92.44, 135.03 2.1 M1.59 161.71 C42.54 114.31, 82.27 67.69, 140.67 1.71 M1.59 161.71 C38.39 119.52, 75.85 77.05, 140.67 1.71 M1.98 167.35 C47.84 113.45, 92.49 60.18, 145.66 2.07 M1.98 167.35 C36.93 126.6, 73.15 85.22, 145.66 2.07 M1.72 173.75 C31.96 137.45, 64.66 98.5, 150.65 2.43 M1.72 173.75 C45.64 123.85, 86.94 75.51, 150.65 2.43 M1.46 180.14 C52.78 120.22, 107.36 60.92, 156.29 2.03 M1.46 180.14 C49.25 126.02, 97.48 70.47, 156.29 2.03 M1.85 185.79 C61.81 117.97, 117.85 53.06, 161.28 2.39 M1.85 185.79 C59.85 119, 118.88 51.82, 161.28 2.39 M1.59 192.19 C39.46 149.48, 75.29 108.43, 166.92 2 M1.59 192.19 C51.26 134.27, 102.39 74.82, 166.92 2 M1.99 197.83 C41.89 152.71, 79.02 107.09, 171.91 2.36 M1.99 197.83 C55.83 135.75, 108 76.14, 171.91 2.36 M1.72 204.23 C47.35 152.45, 90.51 100.19, 177.55 1.96 M1.72 204.23 C69.44 126.06, 137.53 48.92, 177.55 1.96 M1.46 210.62 C41.22 167.23, 81.34 119.88, 182.54 2.32 M1.46 210.62 C51.71 151.86, 103.32 92.7, 182.54 2.32 M1.86 216.27 C53.36 156.01, 104.79 95.84, 188.18 1.93 M1.86 216.27 C40.8 169.73, 80.22 124.66, 188.18 1.93 M1.6 222.66 C66.79 148.32, 132.48 74.19, 193.17 2.29 M1.6 222.66 C62.54 151.04, 123.33 81.79, 193.17 2.29 M1.99 228.31 C43.61 178.83, 84.88 130.86, 198.81 1.9 M1.99 228.31 C52.79 171.8, 102.88 113.36, 198.81 1.9 M1.73 234.71 C66.25 160.09, 129.83 87.2, 203.8 2.26 M1.73 234.71 C45.68 184.59, 89.54 134.34, 203.8 2.26 M1.47 241.1 C64.68 169.82, 129.07 95.76, 209.44 1.86 M1.47 241.1 C69 165.42, 134.06 89.53, 209.44 1.86 M1.86 246.75 C60.65 176.11, 119.41 108.15, 214.43 2.22 M1.86 246.75 C52.41 187.99, 104.63 129, 214.43 2.22 M1.6 253.14 C61.52 184.54, 121.49 116.28, 220.07 1.83 M1.6 253.14 C47.55 200.65, 93.64 148.37, 220.07 1.83 M2 258.79 C59.36 192.5, 118.05 125.38, 225.06 2.19 M2 258.79 C55.27 200.74, 105.66 141.18, 225.06 2.19 M1.73 265.19 C48.57 210.52, 92.82 157.1, 230.7 1.79 M1.73 265.19 C60.18 196.75, 121.66 127.08, 230.7 1.79 M1.47 271.58 C72.79 189.79, 142.65 106.84, 235.69 2.15 M1.47 271.58 C66.98 194.73, 133.25 119.09, 235.69 2.15 M1.87 277.23 C55.76 214.06, 108.97 152.59, 241.33 1.76 M1.87 277.23 C57.09 214.27, 110.7 151.9, 241.33 1.76 M1.61 283.62 C89.4 182.05, 178.05 82.68, 246.32 2.12 M1.61 283.62 C67.57 207.67, 132.46 132.96, 246.32 2.12 M2 289.27 C61.52 224.03, 119.75 156.82, 251.96 1.72 M2 289.27 C93.04 185.95, 183.86 81.16, 251.96 1.72 M1.74 295.66 C99.53 179.94, 199.25 66.13, 256.95 2.08 M1.74 295.66 C83.94 200.98, 164.63 108.33, 256.95 2.08 M1.48 302.06 C101.88 188.86, 201.34 75.42, 262.59 1.69 M1.48 302.06 C94.87 196.13, 185.57 91.53, 262.59 1.69 M1.87 307.71 C72.62 230.37, 139.91 151.29, 267.58 2.05 M1.87 307.71 C91.52 204.51, 181.63 100.59, 267.58 2.05 M1.61 314.1 C102.38 196.38, 203.17 82.03, 272.56 2.41 M1.61 314.1 C108.18 191.73, 214.19 69.49, 272.56 2.41 M2.01 319.75 C70.38 241.4, 137.78 162.42, 278.21 2.01 M2.01 319.75 C84.43 224.3, 167.12 128.48, 278.21 2.01 M1.74 326.14 C108.27 202.83, 215.21 82.45, 283.19 2.37 M1.74 326.14 C86.81 226.74, 173.18 128.62, 283.19 2.37 M1.48 332.54 C95 223.95, 190.56 113.41, 288.84 1.98 M1.48 332.54 C99.28 219.69, 198.17 106.88, 288.84 1.98 M1.88 338.19 C95.65 229.87, 187.73 124.1, 293.82 2.34 M1.88 338.19 C66.86 263.54, 130.18 189.16, 293.82 2.34 M1.62 344.58 C91.57 239.76, 181.42 137.38, 299.47 1.94 M1.62 344.58 C80.24 255.46, 159.03 164.57, 299.47 1.94 M2.01 350.23 C115.01 219.39, 227.3 87.78, 304.45 2.3 M2.01 350.23 C87.28 251.21, 174.49 151.63, 304.45 2.3 M1.75 356.62 C84.57 264.07, 164.07 171.24, 310.1 1.91 M1.75 356.62 C74.88 271.6, 148.84 186.24, 310.1 1.91 M1.49 363.02 C93.01 256.53, 184.15 150.84, 315.08 2.27 M1.49 363.02 C119.44 226.05, 236.84 90.43, 315.08 2.27 M1.88 368.66 C103.25 253.2, 201.74 138.58, 320.73 1.88 M1.88 368.66 C99.04 255.69, 196.49 143.04, 320.73 1.88 M1.62 375.06 C85.15 276.95, 170.74 179.64, 325.71 2.24 M1.62 375.06 C122.38 236.52, 242.16 98.92, 325.71 2.24 M2.02 380.71 C92.45 276.8, 181.75 173.85, 331.36 1.84 M2.02 380.71 C91.17 276.12, 181.62 172.72, 331.36 1.84 M1.75 387.1 C84.58 291.06, 166.05 196.44, 336.34 2.2 M1.75 387.1 C94.4 281.47, 184.93 176.42, 336.34 2.2 M1.49 393.5 C124.94 253, 247.51 110.88, 341.99 1.81 M1.49 393.5 C74.85 309.46, 146.6 227.08, 341.99 1.81 M1.89 399.14 C90.3 297.63, 177.87 197.53, 346.97 2.17 M1.89 399.14 C105.9 280.15, 209.71 160.87, 346.97 2.17 M1.63 405.54 C110.25 280.63, 219.13 155.38, 352.62 1.77 M1.63 405.54 C128.37 258.75, 254.58 113.2, 352.62 1.77 M2.02 411.18 C92.18 304.74, 184.44 201.34, 357.6 2.13 M2.02 411.18 C140.87 249.78, 280.69 89.45, 357.6 2.13 M1.76 417.58 C91.94 313.86, 182.86 209.29, 363.25 1.74 M1.76 417.58 C84.44 322.08, 167.77 226.72, 363.25 1.74 M1.5 423.98 C104.23 304.63, 208.63 185.35, 368.23 2.1 M1.5 423.98 C113.47 296.24, 224.21 168.82, 368.23 2.1 M1.89 429.62 C90.76 328.3, 178.64 227.05, 373.88 1.7 M1.89 429.62 C112.48 304.87, 220.64 180.18, 373.88 1.7 M1.63 436.02 C119.79 299.05, 239.42 161.66, 378.86 2.06 M1.63 436.02 C113 306.74, 226.19 177.33, 378.86 2.06 M2.02 441.66 C123.31 302.71, 242.52 163.63, 383.85 2.42 M2.02 441.66 C114.31 313.21, 224.92 185.84, 383.85 2.42 M1.76 448.06 C81.57 355.21, 162.01 262.91, 389.49 2.03 M1.76 448.06 C106.55 326.81, 211.53 206.16, 389.49 2.03 M1.5 454.46 C99.08 341.73, 196.9 228.05, 394.48 2.39 M1.5 454.46 C132.87 302.54, 264.24 151.99, 394.48 2.39 M1.9 460.1 C144.21 294.98, 286.14 131.32, 400.12 1.99 M1.9 460.1 C91.09 356.82, 180.46 254.31, 400.12 1.99 M1.64 466.5 C85.41 369.53, 169.27 273.79, 405.11 2.35 M1.64 466.5 C161.91 281.18, 322.73 96.83, 405.11 2.35 M2.03 472.14 C95.38 366.53, 186.8 261.85, 410.75 1.96 M2.03 472.14 C158.51 293.5, 313.77 114.25, 410.75 1.96 M1.77 478.54 C111.23 352.96, 222.05 226.59, 415.74 2.32 M1.77 478.54 C94.93 370.83, 188.23 263.31, 415.74 2.32 M1.51 484.94 C94.72 375.25, 188.74 267.03, 421.38 1.93 M1.51 484.94 C120.09 349.25, 237.07 214.99, 421.38 1.93 M1.9 490.58 C133.67 340.36, 264.53 190.05, 426.37 2.29 M1.9 490.58 C97.95 377.94, 194.76 265.34, 426.37 2.29 M1.64 496.98 C104.53 378.46, 207.09 260.87, 432.01 1.89 M1.64 496.98 C119.04 361.48, 238.23 224.09, 432.01 1.89 M2.03 502.62 C145.05 337.2, 288.38 172.97, 437 2.25 M2.03 502.62 C171.13 310.84, 338.44 118.04, 437 2.25 M1.77 509.02 C129.74 358.55, 259.96 210.83, 442.64 1.86 M1.77 509.02 C112.83 382.94, 222.07 256.92, 442.64 1.86 M1.51 515.42 C144.71 349.41, 289.67 183.55, 447.63 2.22 M1.51 515.42 C153.7 339.87, 305.32 165.35, 447.63 2.22 M1.91 521.06 C129.88 374.05, 259.1 224.45, 453.27 1.82 M1.91 521.06 C130.26 374.73, 258.7 227.8, 453.27 1.82 M1.64 527.46 C94.88 418.34, 188.22 309.36, 458.26 2.18 M1.64 527.46 C139.72 365.76, 279.06 205.39, 458.26 2.18 M2.04 533.1 C125.09 391.29, 247.21 250.89, 463.9 1.79 M2.04 533.1 C183.81 323.27, 364.85 114.55, 463.9 1.79 M1.78 539.5 C133.95 384.86, 267.65 231.26, 468.89 2.15 M1.78 539.5 C169.74 345.32, 337.38 151.9, 468.89 2.15 M1.52 545.9 C160.23 364.19, 316.88 184.48, 474.53 1.75 M1.52 545.9 C188.58 330.21, 377.13 113.87, 474.53 1.75 M1.91 551.54 C187.87 335.92, 372.74 121.64, 479.52 2.11 M1.91 551.54 C168.16 358.95, 334.32 167.59, 479.52 2.11 M1.65 557.94 C176.09 358.41, 350.39 159.36, 485.17 1.72 M1.65 557.94 C121.57 419.32, 239.82 282.73, 485.17 1.72 M2.04 563.58 C170.98 366.24, 341.44 170.77, 490.15 2.08 M2.04 563.58 C193.24 344.39, 382.35 126.88, 490.15 2.08 M1.78 569.98 C135.09 420.17, 265.79 270.94, 495.8 1.68 M1.78 569.98 C144.73 401.53, 290.5 234.99, 495.8 1.68 M1.52 576.38 C153.39 405.6, 303.26 233.38, 500.78 2.04 M1.52 576.38 C180.49 369.2, 359.14 163.62, 500.78 2.04 M1.92 582.02 C168.62 391.46, 333.8 200.1, 505.77 2.4 M1.92 582.02 C114.15 456.63, 224.5 329.72, 505.77 2.4 M1.65 588.42 C200.89 357.38, 401.07 126.73, 511.41 2.01 M1.65 588.42 C108.15 467.68, 214.05 345.88, 511.41 2.01 M2.05 594.06 C152.99 419.88, 303.66 247.86, 516.4 2.37 M2.05 594.06 C166.39 407.25, 329.27 220.16, 516.4 2.37 M1.79 600.46 C148.41 432, 293.23 262.99, 522.04 1.98 M1.79 600.46 C132.35 451.67, 263.01 301.32, 522.04 1.98 M1.53 606.86 C133.54 457.14, 264.18 306.28, 527.03 2.34 M1.53 606.86 C209.48 368.03, 418.14 128.68, 527.03 2.34 M1.92 612.5 C120.72 473.98, 241.03 337.12, 532.67 1.94 M1.92 612.5 C146.68 444.82, 290.19 280.02, 532.67 1.94 M1.66 618.9 C191.62 401.61, 380.08 183.34, 537.66 2.3 M1.66 618.9 C156.08 441.64, 311.11 263.5, 537.66 2.3 M2.05 624.54 C218.21 377.78, 433.29 130.32, 543.3 1.91 M2.05 624.54 C120.6 489.77, 237.58 354.43, 543.3 1.91 M1.79 630.94 C177.78 430.37, 351.07 230.44, 548.29 2.27 M1.79 630.94 C184.81 418.62, 369.24 205.73, 548.29 2.27 M1.53 637.34 C206.61 399.62, 413.21 162.12, 553.93 1.87 M1.53 637.34 C172.07 444.01, 341 249.48, 553.93 1.87 M1.93 642.98 C175.24 445.06, 347.78 247.14, 558.92 2.23 M1.93 642.98 C172.3 444.81, 344.31 247.31, 558.92 2.23 M1.66 649.38 C139.14 489.87, 275.68 330.66, 564.56 1.84 M1.66 649.38 C184.56 442.07, 365.93 232.65, 564.56 1.84 M1.4 655.78 C150.83 488.21, 297.96 318.45, 569.55 2.2 M1.4 655.78 C161.39 473.42, 320.35 290.34, 569.55 2.2 M1.8 661.42 C172.4 464.95, 344.62 268.72, 575.19 1.8 M1.8 661.42 C182.82 452.51, 365.07 242.63, 575.19 1.8 M1.54 667.82 C206.44 434.89, 408.67 202.09, 580.18 2.16 M1.54 667.82 C204.51 436.42, 405.93 204.35, 580.18 2.16 M1.93 673.46 C201.84 447.34, 399.87 218.62, 585.82 1.77 M1.93 673.46 C183.12 466.55, 364.47 258.27, 585.82 1.77 M1.67 679.86 C193.79 461.38, 385.08 241.87, 590.81 2.13 M1.67 679.86 C198.07 457.54, 393.12 233.93, 590.81 2.13 M1.41 686.26 C225.75 428.79, 449.58 169.98, 596.45 1.73 M1.41 686.26 C232.73 425.49, 461.17 162.39, 596.45 1.73 M1.8 691.9 C233.87 427.23, 464 162.91, 601.44 2.09 M1.8 691.9 C153.22 516.38, 306.72 339.12, 601.44 2.09 M1.54 698.3 C197.44 473.23, 396.33 245.54, 607.08 1.7 M1.54 698.3 C242.22 423.73, 480.5 149.04, 607.08 1.7 M1.94 703.94 C174.18 506.27, 347.72 306.47, 612.07 2.06 M1.94 703.94 C167.85 508.73, 335.74 315.74, 612.07 2.06 M1.67 710.34 C194.86 489, 389.6 265.08, 617.06 2.42 M1.67 710.34 C163.34 526.74, 322.83 342.53, 617.06 2.42 M1.41 716.73 C157.82 539.51, 311.92 363.62, 622.7 2.02 M1.41 716.73 C222.34 464.46, 442.08 211.38, 622.7 2.02 M1.81 722.38 C235.64 451.86, 468.39 181.79, 627.69 2.38 M1.81 722.38 C166.28 529.15, 333.8 336.21, 627.69 2.38 M1.55 728.78 C156.16 550.43, 310.29 373.44, 633.33 1.99 M1.55 728.78 C239.57 457.56, 475.58 185.28, 633.33 1.99 M1.94 734.42 C220.4 484.53, 439.93 231.99, 638.32 2.35 M1.94 734.42 C238.33 462.31, 474.56 190.2, 638.32 2.35 M1.68 740.82 C196.65 517.84, 391.12 292.71, 643.96 1.96 M1.68 740.82 C155.21 565.96, 308.56 389.95, 643.96 1.96 M1.42 747.21 C244.29 470.54, 486.49 192.18, 648.95 2.32 M1.42 747.21 C192.39 529.71, 383.67 310.3, 648.95 2.32 M1.81 752.86 C145.43 587.51, 291.3 422.1, 654.59 1.92 M1.81 752.86 C236.36 479.29, 473.02 207.19, 654.59 1.92 M1.55 759.26 C146.08 595.05, 291.52 428.82, 659.58 2.28 M1.55 759.26 C150.83 588.51, 298.91 417.85, 659.58 2.28 M1.94 764.9 C164.66 579.03, 324.5 394.96, 665.22 1.89 M1.94 764.9 C257.2 473.43, 510.96 181.61, 665.22 1.89 M1.68 771.3 C235.54 503.88, 467.08 236.94, 670.21 2.25 M1.68 771.3 C216.29 528.04, 428.99 283.37, 670.21 2.25 M1.42 777.69 C248.47 488.2, 498.69 202.3, 675.85 1.85 M1.42 777.69 C168.11 584.76, 337.31 390.93, 675.85 1.85 M1.82 783.34 C152.52 609.78, 304.47 435.76, 680.84 2.21 M1.82 783.34 C273.58 473.02, 543.21 162.47, 680.84 2.21 M1.56 789.73 C189.8 573.82, 375.08 359.75, 686.48 1.82 M1.56 789.73 C232.46 528.9, 462.01 265.09, 686.48 1.82 M1.95 795.38 C159.04 614.56, 319.71 430.6, 691.47 2.18 M1.95 795.38 C178.9 596.15, 353.69 395.12, 691.47 2.18 M1.69 801.78 C256.7 508.27, 508.58 216.78, 697.11 1.78 M1.69 801.78 C223.79 541.89, 447.22 285.43, 697.11 1.78 M1.43 808.17 C254.51 516.97, 505.07 226.94, 702.1 2.14 M1.43 808.17 C241.15 530.86, 481.07 254.01, 702.1 2.14 M1.82 813.82 C235.3 548.55, 467.72 281.65, 707.74 1.75 M1.82 813.82 C226.27 555.68, 448.99 299.6, 707.74 1.75 M1.56 820.21 C213.79 577.95, 427.77 332.29, 712.73 2.11 M1.56 820.21 C211.6 582.54, 418.96 344.23, 712.73 2.11 M1.3 826.61 C145.76 657.36, 290.5 491.57, 718.37 1.71 M1.3 826.61 C245.83 546.39, 486.97 268.26, 718.37 1.71 M1.69 832.25 C259.24 538.73, 518.05 240.5, 723.36 2.07 M1.69 832.25 C281.77 509.68, 563.91 185.53, 723.36 2.07 M2.74 837.14 C201.72 608.09, 401.82 375.92, 729 1.68 M2.74 837.14 C167.9 650.01, 330.28 462.78, 729 1.68 M3.79 842.03 C256.18 550.2, 505.83 261.92, 733.99 2.04 M3.79 842.03 C222.57 592.02, 441.5 339.66, 733.99 2.04 M6.16 845.41 C160.04 671.02, 311.16 496.82, 738.98 2.4 M6.16 845.41 C246.28 564.48, 489.55 284.51, 738.98 2.4 M8.52 848.79 C210 614.1, 412.02 379.9, 744.62 2.01 M8.52 848.79 C263.96 557.84, 518.18 266.69, 744.62 2.01 M10.88 852.17 C232.21 594.34, 456.66 337.46, 749.61 2.37 M10.88 852.17 C184.09 655.86, 355.39 458.56, 749.61 2.37 M13.9 854.79 C220.39 615.57, 429.22 374.67, 755.25 1.97 M13.9 854.79 C177.99 670.64, 339.94 484.05, 755.25 1.97 M18.23 855.91 C191.59 658.03, 363.94 459.64, 760.24 2.33 M18.23 855.91 C175.55 672.6, 335.93 488.23, 760.24 2.33 M22.56 857.02 C241.56 603.31, 459.52 351.69, 765.88 1.94 M22.56 857.02 C235.3 618.14, 445.13 376.33, 765.88 1.94 M27.55 857.38 C262.05 587.58, 498.58 314.62, 770.87 2.3 M27.55 857.38 C315.4 523.19, 603.77 191.8, 770.87 2.3 M31.88 858.5 C296.73 552.13, 561.5 247.67, 776.51 1.9 M31.88 858.5 C225.99 632.21, 423.2 405.19, 776.51 1.9 M37.52 858.1 C219.74 644.98, 404.81 432.06, 781.5 2.26 M37.52 858.1 C318.06 539.95, 596.25 220.39, 781.5 2.26 M42.51 858.46 C275.66 586.33, 511.82 314.15, 787.14 1.87 M42.51 858.46 C309.15 550.87, 576.33 243.53, 787.14 1.87 M48.15 858.07 C317.08 550.48, 585.49 242.53, 792.13 2.23 M48.15 858.07 C206.59 676.06, 365.26 494.33, 792.13 2.23 M53.14 858.43 C301.17 569.16, 550.43 280.03, 797.77 1.83 M53.14 858.43 C295.58 578.9, 540.73 297.05, 797.77 1.83 M58.78 858.03 C326.48 555.29, 591.32 249.88, 802.76 2.19 M58.78 858.03 C256.35 633.8, 452.98 407.14, 802.76 2.19 M63.77 858.39 C346.45 533.91, 627.75 212.13, 808.4 1.8 M63.77 858.39 C217.67 686.67, 368.57 513.6, 808.4 1.8 M69.41 858 C360.05 520.46, 651.84 187.05, 813.39 2.16 M69.41 858 C298.31 598.74, 525.53 338.1, 813.39 2.16 M74.4 858.36 C307.06 590.04, 541.91 320.8, 819.03 1.76 M74.4 858.36 C354.83 535.76, 635.46 213.11, 819.03 1.76 M80.04 857.96 C361.02 534.23, 643.16 208.26, 824.02 2.12 M80.04 857.96 C248.04 663.18, 415.84 470.71, 824.02 2.12 M85.03 858.32 C254.84 664.68, 425.71 468.47, 829.66 1.73 M85.03 858.32 C319.64 589.9, 555.35 318.52, 829.66 1.73 M90.67 857.93 C307.88 604.58, 528.05 350.35, 834.65 2.09 M90.67 857.93 C340.85 572.73, 590.72 284.96, 834.65 2.09 M95.66 858.29 C324.97 594.2, 555.9 329.21, 840.29 1.69 M95.66 858.29 C280.37 641.12, 467.42 426.47, 840.29 1.69 M101.31 857.9 C302.57 624.34, 502.55 393.18, 845.28 2.06 M101.31 857.9 C299.88 628.67, 496.65 401.86, 845.28 2.06 M106.29 858.26 C367.73 557.6, 629.33 255.6, 850.26 2.42 M106.29 858.26 C317.09 618.82, 524.9 379.57, 850.26 2.42 M111.94 857.86 C326.65 613.4, 541.73 364.96, 855.91 2.02 M111.94 857.86 C304.67 637.44, 494.68 418.79, 855.91 2.02 M116.92 858.22 C316.42 631.5, 512.06 405.76, 860.89 2.38 M116.92 858.22 C313.86 630.68, 512.84 401.67, 860.89 2.38 M122.57 857.83 C344.79 602.38, 567.98 346.71, 866.54 1.99 M122.57 857.83 C320.22 629.91, 519.88 400.61, 866.54 1.99 M127.55 858.19 C390.73 552.3, 654.9 250.56, 871.52 2.35 M127.55 858.19 C381.61 564.5, 638.9 268.82, 871.52 2.35 M133.2 857.79 C358.54 596.09, 585.56 334.18, 877.17 1.95 M133.2 857.79 C342.89 615.57, 552.9 373.06, 877.17 1.95 M138.18 858.15 C317.66 650.12, 500 441.56, 882.15 2.31 M138.18 858.15 C296.75 673.74, 457.36 489.14, 882.15 2.31 M143.17 858.51 C344.04 626.84, 544.17 397.34, 887.8 1.92 M143.17 858.51 C433.96 522.16, 728.14 183.76, 887.8 1.92 M148.81 858.12 C419.32 543.17, 690.82 231.45, 892.78 2.28 M148.81 858.12 C333.2 646.71, 513.81 438.81, 892.78 2.28 M153.8 858.48 C308.43 680.1, 464.09 502.06, 898.43 1.88 M153.8 858.48 C392.86 585.16, 629.14 312.84, 898.43 1.88 M159.44 858.08 C345.59 647.31, 530.4 435.31, 903.41 2.24 M159.44 858.08 C430.19 544.33, 700.91 233.21, 903.41 2.24 M164.43 858.44 C391.53 597.43, 615.23 338.85, 909.06 1.85 M164.43 858.44 C375.59 621.1, 584.64 380.4, 909.06 1.85 M170.07 858.05 C346.23 655.03, 524.67 449.94, 914.04 2.21 M170.07 858.05 C452.24 535.94, 732.82 213.23, 914.04 2.21 M175.06 858.41 C458.71 528.95, 742.98 201.59, 919.03 2.57 M175.06 858.41 C420.88 572.31, 667.04 288.82, 919.03 2.57 M180.7 858.01 C470.41 522.48, 759.9 189.22, 923.36 3.68 M180.7 858.01 C366.77 641.99, 553.67 426.75, 923.36 3.68 M185.69 858.37 C373.09 648.87, 556.81 437.02, 928.35 4.04 M185.69 858.37 C357.57 655.31, 531.64 454.25, 928.35 4.04 M191.33 857.98 C460.03 551.7, 726.12 243.99, 932.02 5.91 M191.33 857.98 C356.22 667.81, 522.54 476.62, 932.02 5.91 M196.32 858.34 C453.63 564.39, 707.44 272.4, 935.04 8.54 M196.32 858.34 C472.83 542.41, 747.37 226.05, 935.04 8.54 M201.96 857.95 C432.55 592.53, 664.95 324.99, 938.72 10.41 M201.96 857.95 C423.54 607.22, 642.87 355.73, 938.72 10.41 M206.95 858.31 C412.49 620.26, 618.52 383.42, 941.08 13.79 M206.95 858.31 C385.84 655.43, 564.38 450.51, 941.08 13.79 M212.59 857.91 C382.51 663.78, 550.03 468.78, 942.13 18.67 M212.59 857.91 C461.84 571.03, 709.81 285.61, 942.13 18.67 M217.58 858.27 C453.71 589.27, 689.36 317.14, 943.18 23.56 M217.58 858.27 C479.91 556.47, 742.69 253.38, 943.18 23.56 M223.22 857.88 C501.67 533.6, 782.92 209.64, 944.23 28.45 M223.22 857.88 C502.08 533.92, 783.34 210.71, 944.23 28.45 M228.21 858.24 C444.52 609.88, 661.58 360.51, 945.28 33.34 M228.21 858.24 C489.29 558.52, 751.1 257.94, 945.28 33.34 M233.85 857.84 C437.64 624.82, 638.76 392.48, 945.68 38.98 M233.85 857.84 C482.66 569.64, 733.22 281.79, 945.68 38.98 M238.84 858.2 C447.56 621.59, 652.93 384.68, 945.42 45.38 M238.84 858.2 C448.96 615.94, 660.15 372.18, 945.42 45.38 M244.48 857.81 C459.27 611.04, 676.45 361.41, 945.15 51.78 M244.48 857.81 C450.94 616.59, 658.45 376.68, 945.15 51.78 M249.47 858.17 C482.47 592.33, 715.27 324.89, 945.55 57.42 M249.47 858.17 C480.46 589.03, 713.74 320.65, 945.55 57.42 M254.46 858.53 C446.05 640.73, 634.23 424.06, 945.29 63.82 M254.46 858.53 C503.34 569.75, 754.45 280.49, 945.29 63.82 M260.1 858.13 C482.48 597.95, 708.18 340.34, 945.68 69.46 M260.1 858.13 C435.57 653.92, 610.77 452.34, 945.68 69.46 M265.09 858.49 C464.6 632.71, 661.66 406.51, 945.42 75.86 M265.09 858.49 C441.77 653.88, 617.55 451.66, 945.42 75.86 M270.73 858.1 C489.23 603.57, 710.74 350.18, 945.16 82.26 M270.73 858.1 C517.04 575.81, 762.08 293.76, 945.16 82.26 M275.72 858.46 C463.77 640.63, 651.87 423.57, 945.55 87.9 M275.72 858.46 C511.61 584.77, 749.77 310.63, 945.55 87.9 M281.36 858.06 C446.83 669.34, 610.34 480.42, 945.29 94.3 M281.36 858.06 C533.74 570, 785.1 281.07, 945.29 94.3 M286.35 858.42 C467.07 649.12, 648.77 440.11, 945.69 99.94 M286.35 858.42 C543.1 562, 802.32 264.1, 945.69 99.94 M291.99 858.03 C523.82 593.55, 756.03 325.57, 945.43 106.34 M291.99 858.03 C508.75 603.91, 728.27 351.29, 945.43 106.34 M296.98 858.39 C497.68 626.04, 698.37 393.22, 945.16 112.74 M296.98 858.39 C541.33 573.69, 787.43 290.98, 945.16 112.74 M302.62 858 C547.65 575.16, 794.78 291.05, 945.56 118.38 M302.62 858 C490.37 645.83, 677.16 431.32, 945.56 118.38 M307.61 858.36 C517.44 610.45, 730.75 366.05, 945.3 124.78 M307.61 858.36 C490.37 646.16, 674.91 433.74, 945.3 124.78 M313.25 857.96 C451.63 697.11, 591.06 537.98, 945.69 130.42 M313.25 857.96 C444.84 702.54, 578.04 548.85, 945.69 130.42 M318.24 858.32 C500.29 643.98, 687.1 431.45, 945.43 136.82 M318.24 858.32 C545.35 596.55, 774.03 333.58, 945.43 136.82 M323.88 857.93 C448.94 710.33, 575.74 565.37, 945.17 143.22 M323.88 857.93 C500.16 653.87, 679.68 448.17, 945.17 143.22 M328.87 858.29 C485.55 677.89, 644.68 494.11, 945.56 148.86 M328.87 858.29 C460.61 705.61, 592.96 553.43, 945.56 148.86 M334.51 857.89 C483.7 688.95, 631.35 519.09, 945.3 155.26 M334.51 857.89 C473.84 697.35, 611.21 538.72, 945.3 155.26 M339.5 858.25 C516.76 656.44, 692.31 455.26, 945.7 160.9 M339.5 858.25 C530.69 639.95, 721.93 420.25, 945.7 160.9 M345.14 857.86 C518.81 655.93, 693.33 455.54, 945.44 167.3 M345.14 857.86 C550.79 619.19, 757.94 380.35, 945.44 167.3 M350.13 858.22 C569.89 605.68, 788.83 354.64, 945.17 173.7 M350.13 858.22 C536.59 646.73, 721.16 434.92, 945.17 173.7 M355.77 857.82 C517.57 673.17, 678.04 488.22, 945.57 179.34 M355.77 857.82 C524.72 663.74, 695.2 468.33, 945.57 179.34 M360.76 858.18 C521.98 672.62, 682.24 487.94, 945.31 185.74 M360.76 858.18 C543.25 650.79, 724.35 442.92, 945.31 185.74 M366.4 857.79 C574.59 616.72, 781.55 378.17, 945.7 191.38 M366.4 857.79 C544.5 652.93, 723.59 447.04, 945.7 191.38 M371.39 858.15 C548.17 659.46, 723.81 457.33, 945.44 197.78 M371.39 858.15 C593.55 599.71, 818.03 341.33, 945.44 197.78 M376.38 858.51 C539.24 670.05, 702.56 483.32, 945.18 204.18 M376.38 858.51 C595.93 605.52, 814.39 354.51, 945.18 204.18 M382.02 858.11 C582.97 626.03, 783.48 395.13, 945.57 209.82 M382.02 858.11 C549.88 663.77, 719.76 468.58, 945.57 209.82 M387.01 858.47 C524.81 703.79, 661.35 547.81, 945.31 216.22 M387.01 858.47 C556.91 662.9, 725.79 468.57, 945.31 216.22 M392.65 858.08 C525.64 707.66, 657.59 556.23, 945.71 221.86 M392.65 858.08 C586.46 634.67, 780.77 411.53, 945.71 221.86 M397.64 858.44 C605.94 615.61, 815.12 376.67, 945.44 228.26 M397.64 858.44 C600.07 621.93, 804.23 387.5, 945.44 228.26 M403.28 858.04 C602.08 630.56, 799.09 404, 945.18 234.65 M403.28 858.04 C574.28 661.01, 747.23 462.03, 945.18 234.65 M408.27 858.4 C574.78 668.38, 739.87 478.87, 945.58 240.3 M408.27 858.4 C580.3 661.28, 753.69 461.92, 945.58 240.3 M413.91 858.01 C552.53 698.03, 690.73 540.55, 945.32 246.7 M413.91 858.01 C602.16 643.51, 789.81 427.37, 945.32 246.7 M418.9 858.37 C621.79 626.7, 824.4 394.47, 945.71 252.34 M418.9 858.37 C625.96 620.43, 831.44 383.15, 945.71 252.34 M424.54 857.98 C556.01 704.49, 688.44 552.05, 945.45 258.74 M424.54 857.98 C563.35 695.71, 702.33 535.18, 945.45 258.74 M429.53 858.34 C552.87 716.91, 674.67 575.46, 945.19 265.13 M429.53 858.34 C553.17 714.65, 676.62 572.61, 945.19 265.13 M435.17 857.94 C633.53 628.4, 830.89 400.52, 945.58 270.78 M435.17 857.94 C559.7 715.24, 682.51 573.31, 945.58 270.78 M440.16 858.3 C563.18 718.16, 685.95 577.75, 945.32 277.17 M440.16 858.3 C565.02 714.45, 689.46 571.25, 945.32 277.17 M445.8 857.91 C598.97 683.69, 752.29 507.24, 945.72 282.82 M445.8 857.91 C607.54 672.93, 769.13 486.57, 945.72 282.82 M450.79 858.27 C571.82 721.69, 691.25 582.38, 945.45 289.22 M450.79 858.27 C551.89 740.51, 653.14 624.37, 945.45 289.22 M456.43 857.87 C638.3 653.52, 817.15 447.05, 945.19 295.61 M456.43 857.87 C619.52 673.48, 780.93 487.45, 945.19 295.61 M461.42 858.23 C575.68 727.97, 688.43 599.2, 945.59 301.26 M461.42 858.23 C568.19 734.45, 677.16 609.13, 945.59 301.26 M467.06 857.84 C626.06 675.1, 782.81 494.18, 945.33 307.65 M467.06 857.84 C631.35 669.53, 795.87 481.33, 945.33 307.65 M472.05 858.2 C600.53 713.08, 725.78 568.8, 945.72 313.3 M472.05 858.2 C584.65 727.14, 696.65 597.94, 945.72 313.3 M477.69 857.8 C599.57 717.1, 723.19 574.22, 945.46 319.7 M477.69 857.8 C575.53 742.16, 675.44 627.49, 945.46 319.7 M482.68 858.16 C643.3 670.3, 807.52 483.5, 945.2 326.09 M482.68 858.16 C615.49 706.19, 748.73 553.65, 945.2 326.09 M487.66 858.52 C600.99 725.62, 715.25 593.46, 945.59 331.74 M487.66 858.52 C605.18 725.47, 721.84 591.38, 945.59 331.74 M493.31 858.13 C655.43 667.44, 820.62 478.73, 945.33 338.13 M493.31 858.13 C600.94 733.71, 708.21 610.57, 945.33 338.13 M498.29 858.49 C618.71 719, 742.23 578.73, 945.07 344.53 M498.29 858.49 C655.88 676.43, 813.84 495.24, 945.07 344.53 M503.94 858.09 C646.05 692.71, 791.12 527.36, 945.46 350.17 M503.94 858.09 C620.41 721.06, 739.07 586.05, 945.46 350.17 M508.92 858.45 C652.02 694.25, 794.08 530.99, 945.2 356.57 M508.92 858.45 C623.21 726.72, 735.5 596.93, 945.2 356.57 M514.57 858.06 C656.08 695.51, 796.45 533.85, 945.6 362.22 M514.57 858.06 C676.53 670.62, 838.84 484.65, 945.6 362.22 M519.55 858.42 C652.66 704.7, 785.16 552.76, 945.34 368.61 M519.55 858.42 C645.96 714.37, 769.99 570.98, 945.34 368.61 M525.2 858.03 C611.38 760.87, 696.97 662.51, 945.07 375.01 M525.2 858.03 C640.43 725.08, 756.01 591.52, 945.07 375.01 M530.18 858.39 C670.07 697.37, 810.53 535.59, 945.47 380.65 M530.18 858.39 C630.67 744.24, 728.73 630.29, 945.47 380.65 M535.83 857.99 C644.81 735.64, 751.99 610.37, 945.21 387.05 M535.83 857.99 C658.89 715.91, 781.66 575.28, 945.21 387.05 M540.81 858.35 C630.87 753.26, 721.54 649.14, 945.6 392.7 M540.81 858.35 C642 743.23, 742.7 627.06, 945.6 392.7 M546.46 857.96 C692.37 693.89, 836.24 528.97, 945.34 399.09 M546.46 857.96 C666.36 723.55, 784.63 587.44, 945.34 399.09 M551.44 858.32 C704.6 678.92, 858.39 502.42, 945.08 405.49 M551.44 858.32 C686.82 703.99, 821.92 548.95, 945.08 405.49 M557.09 857.92 C640.79 763.81, 723.36 668.89, 945.47 411.13 M557.09 857.92 C685.05 709.49, 813.87 560.89, 945.47 411.13 M562.07 858.28 C708.39 691.77, 852.92 525.23, 945.21 417.53 M562.07 858.28 C681.96 720.72, 800.63 583.47, 945.21 417.53 M567.72 857.89 C677.63 730.78, 788.07 602.3, 945.61 423.17 M567.72 857.89 C715.86 687.11, 863.52 517.44, 945.61 423.17 M572.7 858.25 C690.89 721.68, 809.92 586.3, 945.35 429.57 M572.7 858.25 C649.9 770.64, 726.54 682.75, 945.35 429.57 M578.35 857.85 C702.92 716.56, 826.77 575.85, 945.08 435.97 M578.35 857.85 C679.25 743.93, 778.88 629.9, 945.08 435.97 M583.33 858.21 C678.98 746.27, 773.62 637.15, 945.48 441.61 M583.33 858.21 C674.3 754.66, 764.37 651.57, 945.48 441.61 M588.98 857.82 C671.57 763.37, 753.07 669.62, 945.22 448.01 M588.98 857.82 C693.62 736.61, 797.26 617.04, 945.22 448.01 M593.96 858.18 C688.12 747.82, 784.35 637.55, 945.61 453.65 M593.96 858.18 C709.83 726.72, 824.91 594.08, 945.61 453.65 M599.61 857.78 C709.6 728.91, 822.32 600.11, 945.35 460.05 M599.61 857.78 C735.49 704.4, 869.76 549.74, 945.35 460.05 M604.59 858.14 C706.29 738.2, 810.17 620.35, 945.09 466.45 M604.59 858.14 C704.59 742.57, 806.26 625.78, 945.09 466.45 M609.58 858.5 C716.4 737.47, 823 613.99, 945.48 472.09 M609.58 858.5 C679.65 775.47, 751.52 692.66, 945.48 472.09 M615.22 858.11 C725.63 732.64, 834.76 606.4, 945.22 478.49 M615.22 858.11 C710.73 748.81, 805.39 639.93, 945.22 478.49 M620.21 858.47 C745.66 714.81, 868.32 572.81, 945.62 484.13 M620.21 858.47 C697.32 770.36, 773.47 683.04, 945.62 484.13 M625.85 858.07 C701.95 770.21, 777.01 681.08, 945.36 490.53 M625.85 858.07 C748.51 717.3, 870.82 578.1, 945.36 490.53 M630.84 858.44 C704.44 776.46, 776.53 691.63, 945.09 496.93 M630.84 858.44 C705.41 773.28, 779.57 687.98, 945.09 496.93 M636.48 858.04 C730.98 748.32, 825.98 638.55, 945.49 502.57 M636.48 858.04 C740.09 736.92, 844.63 616.53, 945.49 502.57 M641.47 858.4 C716.83 772.61, 792.35 685.71, 945.23 508.97 M641.47 858.4 C711.28 779.96, 779.27 701.34, 945.23 508.97 M647.11 858.01 C748.58 742.01, 850.66 626.41, 945.62 514.61 M647.11 858.01 C732.99 761.75, 818.1 663.23, 945.62 514.61 M652.1 858.37 C760.09 735.79, 869.29 610.24, 945.36 521.01 M652.1 858.37 C747.87 750.42, 842.21 642.73, 945.36 521.01 M657.74 857.97 C751.75 749.63, 845.68 639.6, 945.1 527.41 M657.74 857.97 C717.52 786.51, 777.99 716.66, 945.1 527.41 M662.73 858.33 C770.51 730.73, 881.08 604.09, 945.49 533.05 M662.73 858.33 C736.16 772.67, 810.76 687.25, 945.49 533.05 M668.37 857.94 C777.17 730.66, 888.05 604.85, 945.23 539.45 M668.37 857.94 C745.29 770.9, 822 682.42, 945.23 539.45 M673.36 858.3 C745.36 778.39, 814.37 696.75, 945.63 545.09 M673.36 858.3 C756.9 763.48, 840.52 668.3, 945.63 545.09 M679 857.9 C744.37 782.67, 812.32 704.81, 945.36 551.49 M679 857.9 C762.51 763.88, 844.37 668.7, 945.36 551.49 M683.99 858.26 C785.92 741.69, 886.35 625.48, 945.1 557.89 M683.99 858.26 C766.47 762.17, 850.25 666.96, 945.1 557.89 M689.63 857.87 C771.49 762.91, 855.45 667.5, 945.5 563.53 M689.63 857.87 C764.23 770.03, 841.35 681.98, 945.5 563.53 M694.62 858.23 C781.66 759.25, 868.68 660.8, 945.24 569.93 M694.62 858.23 C769.38 771.96, 844.28 686.45, 945.24 569.93 M700.27 857.83 C761.94 786.45, 823.76 715.83, 945.63 575.57 M700.27 857.83 C774.37 769.06, 850.04 681.43, 945.63 575.57 M705.25 858.19 C791.39 759.75, 878.24 662.72, 945.37 581.97 M705.25 858.19 C762.83 790.8, 820.93 723.97, 945.37 581.97 M710.9 857.8 C797.35 755.78, 883.71 655.28, 945.11 588.37 M710.9 857.8 C796.95 757.8, 882.59 659.19, 945.11 588.37 M715.88 858.16 C762.41 802.3, 810.01 748.45, 945.5 594.01 M715.88 858.16 C780.33 785.75, 844.97 711.74, 945.5 594.01 M720.87 858.52 C773.29 797.69, 827.94 735, 945.24 600.41 M720.87 858.52 C801.43 763.39, 884.11 668.94, 945.24 600.41 M726.51 858.12 C800.64 772.48, 874.04 687.32, 945.64 606.05 M726.51 858.12 C801.93 768.81, 879.76 680.57, 945.64 606.05 M731.5 858.48 C796.96 784.22, 865.21 708.02, 945.37 612.45 M731.5 858.48 C810.25 767.96, 889.6 676.24, 945.37 612.45 M737.14 858.09 C810.51 775.21, 879.91 693.93, 945.11 618.85 M737.14 858.09 C801.4 781.19, 868.23 705.35, 945.11 618.85 M742.13 858.45 C791.17 798.4, 843.54 741.46, 945.51 624.49 M742.13 858.45 C803.06 785.23, 866.32 713.03, 945.51 624.49 M747.77 858.06 C804.22 793.3, 859.44 730.21, 945.25 630.89 M747.77 858.06 C798.58 802.91, 847.22 745.67, 945.25 630.89 M752.76 858.42 C795.96 810.24, 837.61 759.87, 945.64 636.53 M752.76 858.42 C808.09 795.64, 860.51 733.92, 945.64 636.53 M758.4 858.02 C827.97 778.47, 897.11 698.39, 945.38 642.93 M758.4 858.02 C821.31 784.84, 885.01 711.83, 945.38 642.93 M763.39 858.38 C803.33 811.99, 844.24 764.04, 945.12 649.33 M763.39 858.38 C808.98 808.82, 852.32 758.57, 945.12 649.33 M769.03 857.99 C817.77 799.07, 869.21 742.92, 945.51 654.97 M769.03 857.99 C803.88 816.87, 839.44 776.47, 945.51 654.97 M774.02 858.35 C831.6 792.95, 889.38 725.56, 945.25 661.37 M774.02 858.35 C829.93 793.71, 885.36 728.07, 945.25 661.37 M779.66 857.95 C819.98 811.92, 860.18 764.4, 945.65 667.01 M779.66 857.95 C840.77 788.34, 901.28 719.36, 945.65 667.01 M784.65 858.31 C826.51 812.99, 868.85 762.98, 945.38 673.41 M784.65 858.31 C838.34 794.57, 892.64 730.76, 945.38 673.41 M790.29 857.92 C846.65 795.71, 901.61 730.59, 945.12 679.81 M790.29 857.92 C847.42 793.89, 903.53 729.16, 945.12 679.81 M795.28 858.28 C853.79 791.41, 912.04 722.92, 945.52 685.45 M795.28 858.28 C833.93 816.27, 869.69 774.09, 945.52 685.45 M800.92 857.88 C836.7 816.39, 872.98 773.12, 945.26 691.85 M800.92 857.88 C840.42 813.24, 877.98 767.58, 945.26 691.85 M805.91 858.24 C856.01 804.45, 905.02 748.43, 945.65 697.49 M805.91 858.24 C843.92 816.92, 881.24 774.4, 945.65 697.49 M811.55 857.85 C842.89 821.72, 873.94 786.99, 945.39 703.89 M811.55 857.85 C859.37 803.66, 906.59 749.97, 945.39 703.89 M816.54 858.21 C847.14 819.9, 881.34 782.38, 945.13 710.29 M816.54 858.21 C842.76 826.6, 869.57 796.23, 945.13 710.29 M822.18 857.81 C866.37 805.88, 910.86 754.45, 945.52 715.93 M822.18 857.81 C848.77 826.45, 874.76 795.74, 945.52 715.93 M827.17 858.17 C853.38 824.85, 883.52 793.81, 945.26 722.33 M827.17 858.17 C866.92 811.89, 908 767.18, 945.26 722.33 M832.81 857.78 C876.34 810.94, 918.27 762.31, 945.66 727.97 M832.81 857.78 C862.75 822.04, 891.59 787.05, 945.66 727.97 M837.8 858.14 C874.75 817.73, 909.13 780.71, 945.39 734.37 M837.8 858.14 C869.93 821.1, 900.93 786.95, 945.39 734.37 M842.79 858.5 C876.62 817.28, 910.64 779.93, 945.13 740.77 M842.79 858.5 C867.55 828.89, 892.74 801.46, 945.13 740.77 M848.43 858.11 C885.22 816.83, 918.71 778.84, 945.53 746.41 M848.43 858.11 C882.74 817.2, 917.93 776.01, 945.53 746.41 M853.42 858.47 C885.82 820.12, 920.3 779.94, 945.27 752.81 M853.42 858.47 C878.82 829.21, 904.41 799.57, 945.27 752.81 M859.06 858.07 C886.4 828.68, 913.35 796.92, 945.66 758.45 M859.06 858.07 C879.3 834.93, 899.66 812.68, 945.66 758.45 M864.05 858.43 C896.26 822.12, 928.88 782.62, 945.4 764.85 M864.05 858.43 C886.01 835.38, 904.96 812.24, 945.4 764.85 M869.69 858.04 C895.59 831.83, 916.46 802.39, 945.14 771.24 M869.69 858.04 C886.73 839.22, 903.97 819.74, 945.14 771.24 M874.68 858.4 C897.69 831.8, 921.09 803.23, 945.53 776.89 M874.68 858.4 C891.48 839.68, 908.19 820.48, 945.53 776.89 M880.32 858 C895.85 838.98, 913.05 820.81, 945.27 783.29 M880.32 858 C896.43 840.16, 912.43 821.99, 945.27 783.29 M885.31 858.36 C904.18 835.88, 922.51 812.88, 945.66 788.93 M885.31 858.36 C898.33 842.16, 913.7 825.26, 945.66 788.93 M890.95 857.97 C911.46 832.25, 933.51 806.85, 945.4 795.33 M890.95 857.97 C905.58 841.76, 919.28 824.17, 945.4 795.33 M895.94 858.33 C912.99 839.44, 927.1 825.67, 945.14 801.72 M895.94 858.33 C907.85 844.38, 921.56 828.73, 945.14 801.72 M901.58 857.93 C917.12 840.93, 929.94 825.43, 945.54 807.37 M901.58 857.93 C911.56 846.55, 922.39 834.09, 945.54 807.37 M906.57 858.29 C915.85 847.72, 924.67 838.41, 945.28 813.77 M906.57 858.29 C917.3 847.12, 925.86 836.69, 945.28 813.77 M912.21 857.9 C918.82 848.28, 928.56 838.86, 945.67 819.41 M912.21 857.9 C923.55 845.04, 934.57 832.7, 945.67 819.41 M917.85 857.5 C923.18 851.83, 930.27 841.79, 944.75 826.56 M917.85 857.5 C927.79 845.82, 936.06 834.88, 944.75 826.56 M924.15 856.35 C930.42 849.76, 933.55 845.19, 943.83 833.71 M924.15 856.35 C930.99 848.85, 938.67 841.2, 943.83 833.71 M927.83 858.22 C931.39 851.46, 938.64 847.04, 942.92 840.87 M927.83 858.22 C931.46 854.74, 934.67 849.87, 942.92 840.87" stroke="#ced4da" stroke-width="0.5" fill="none"></path><path d="M32 0 M32 0 C220.97 2.91, 411.51 2.77, 912 0 M32 0 C306.52 -2.48, 581.94 -2.45, 912 0 M912 0 C931.82 -1.97, 942.74 11.71, 944 32 M912 0 C934.96 -1.23, 941.84 12.58, 944 32 M944 32 C945.08 348.35, 946.12 665.97, 944 826 M944 32 C941.61 203.3, 942.32 375.02, 944 826 M944 826 C944.24 845.59, 933.12 857.18, 912 858 M944 826 C945.11 846.77, 934.27 855.97, 912 858 M912 858 C629.56 855.67, 346.32 855.51, 32 858 M912 858 C698.19 855.72, 484.91 855.22, 32 858 M32 858 C9.72 859.47, -1.81 849.22, 0 826 M32 858 C11.51 860.09, -0.78 845.19, 0 826 M0 826 C-1.33 617.85, -0.92 410.41, 0 32 M0 826 C2.68 611.07, 2.44 396.52, 0 32 M0 32 C-0.24 11.68, 11.88 0.77, 32 0 M0 32 C0.54 9.16, 12.93 0.38, 32 0" stroke="#000000" stroke-width="1" fill="none"></path></g><g stroke-linecap="round" transform="translate(498.03527162356204 612.3189943590194) rotate(0 27.81460987140798 25.60069298867586)"><path d="M16.16 3.45 C21.07 1.05, 29.69 -0.02, 35.31 1.18 C40.93 2.38, 46.49 6.29, 49.85 10.65 C53.21 15.02, 55.69 21.91, 55.47 27.37 C55.24 32.83, 52.62 39.65, 48.49 43.44 C44.36 47.22, 36.74 49.49, 30.68 50.08 C24.63 50.68, 17.06 49.87, 12.17 47 C7.27 44.13, 2.78 38.32, 1.31 32.84 C-0.15 27.35, 0.7 19.21, 3.37 14.09 C6.05 8.98, 14.72 4.23, 17.39 2.15 C20.06 0.07, 19.18 1.23, 19.42 1.63 M35.73 2.11 C40.97 3.18, 47.27 5.46, 50.54 10.05 C53.81 14.64, 55.75 24.12, 55.33 29.65 C54.9 35.18, 52.1 39.58, 48.01 43.23 C43.92 46.88, 36.95 50.96, 30.79 51.55 C24.62 52.14, 15.87 49.87, 11.04 46.77 C6.2 43.68, 3.2 38.18, 1.75 32.96 C0.3 27.74, 0.03 20.67, 2.32 15.45 C4.61 10.22, 9.94 4.26, 15.5 1.63 C21.05 -1, 32.46 -0.21, 35.64 -0.34 C38.82 -0.48, 34.82 0.18, 34.58 0.82" stroke="#000000" stroke-width="2" fill="none"></path></g><g stroke-linecap="round"><g transform="translate(522.6851203200613 663.2366035873815) rotate(0 -0.6757279552322188 30.833689636557324)"><path d="M-0.85 -1.07 C-1.15 9.17, -1.55 50.79, -1.79 61.5 M0.9 0.98 C0.53 11.37, -1.62 52.66, -2.25 62.74" stroke="#000000" stroke-width="2" fill="none"></path></g></g><mask></mask><g stroke-linecap="round"><g transform="translate(520.1989607060541 726.8993697284984) rotate(0 11.464687005093879 19.321541327430168)"><path d="M-1.07 0.94 C2.92 7.46, 19.54 32, 24 38.26 M0.57 0.38 C4.35 6.61, 18.59 30.33, 22.75 36.35" stroke="#000000" stroke-width="2" fill="none"></path></g></g><mask></mask><g stroke-linecap="round"><g transform="translate(516.7027317857219 724.4485547197846) rotate(0 -10.209374167174076 17.868164385279044)"><path d="M0.94 -0.57 C-2.36 5.66, -17.07 30.28, -20.62 36.31 M-0.03 1.74 C-3.37 7.76, -17.9 29.49, -21.36 34.79" stroke="#000000" stroke-width="2" fill="none"></path></g></g><mask></mask><g stroke-linecap="round"><g transform="translate(488.7509125674451 698.5091086905227) rotate(0 16.52801509433965 -10.758368242990912)"><path d="M-0.57 0.4 C5.21 -3.11, 28.04 -16.49, 33.63 -20.15 M1.33 -0.43 C7.15 -4.37, 28.1 -18.56, 33.28 -21.92" stroke="#000000" stroke-width="2" fill="none"></path></g></g><mask></mask><g stroke-linecap="round"><g transform="translate(520.4665856619076 676.5080926759163) rotate(0 11.52992375616327 14.418280332938139)"><path d="M0.4 1.14 C4.23 5.93, 20.22 23.73, 23.9 28.14 M-0.84 0.7 C2.8 5.16, 18.99 21.56, 23.3 26.25" stroke="#000000" stroke-width="2" fill="none"></path></g></g><mask></mask><g transform="translate(499.3507293403354 618.8897858928174) rotate(0 28 11)"><text x="0" y="16" font-family="Virgil, Segoe UI Emoji" font-size="15.282036963929505px" fill="#000000" text-anchor="start" style="white-space: pre;" direction="ltr">｡◕‿◕｡</text></g><g stroke-linecap="round" transform="translate(50 46) rotate(0 89.5 88.5)"><path d="M7.86 8.16 C7.86 8.16, 7.86 8.16, 7.86 8.16 M7.86 8.16 C7.86 8.16, 7.86 8.16, 7.86 8.16 M3.66 19.09 C8.46 13.24, 12.16 10.26, 18.1 2.48 M3.66 19.09 C7.83 14.42, 10.25 10.56, 18.1 2.48 M2.75 26.24 C11.46 18.66, 19.72 7.97, 24.4 1.33 M2.75 26.24 C7.14 21.19, 13.47 14.17, 24.4 1.33 M2.48 32.64 C7.02 26.07, 16.17 18.81, 30.7 0.18 M2.48 32.64 C13.09 19.55, 22.98 8.11, 30.7 0.18 M2.88 38.28 C14.72 24.76, 27.07 10.07, 34.37 2.05 M2.88 38.28 C14.17 23.36, 26.74 9.63, 34.37 2.05 M2.62 44.68 C17.12 26.31, 30.64 10.72, 39.36 2.41 M2.62 44.68 C15.55 29.48, 29.87 14.33, 39.36 2.41 M2.36 51.07 C16.93 31.59, 32.69 14.27, 45 2.02 M2.36 51.07 C15.69 34.41, 29.68 18.4, 45 2.02 M2.75 56.72 C11.77 46.59, 22.47 33.03, 49.99 2.38 M2.75 56.72 C19.52 37.65, 35.77 18.68, 49.99 2.38 M2.49 63.11 C12.63 52.23, 24.18 38.98, 55.63 1.98 M2.49 63.11 C13.23 49.87, 24.76 36.33, 55.63 1.98 M2.23 69.51 C13.86 53.35, 26.34 38.54, 60.62 2.34 M2.23 69.51 C24.79 44.3, 46.65 18.4, 60.62 2.34 M2.62 75.16 C17.42 58.36, 33.16 38.4, 66.26 1.95 M2.62 75.16 C16.5 58.45, 30.82 40.89, 66.26 1.95 M2.36 81.55 C22.58 59.19, 42.79 36.15, 71.25 2.31 M2.36 81.55 C18.44 63.36, 34.51 43.88, 71.25 2.31 M2.1 87.95 C30.87 54.37, 62.39 18.87, 76.89 1.91 M2.1 87.95 C21.12 68.48, 38.5 45.42, 76.89 1.91 M2.49 93.59 C27.88 64.76, 51.73 34.93, 81.88 2.27 M2.49 93.59 C32.05 58.72, 62.47 24.08, 81.88 2.27 M2.23 99.99 C23.35 74.22, 45.03 49.77, 87.52 1.88 M2.23 99.99 C36.77 60.94, 69.42 24.88, 87.52 1.88 M2.63 105.64 C30.07 77.74, 52.98 48.69, 92.51 2.24 M2.63 105.64 C27.67 78.67, 50 51.51, 92.51 2.24 M2.37 112.03 C34.05 73.72, 66.35 35.85, 98.15 1.85 M2.37 112.03 C29.92 80.72, 56.33 52.02, 98.15 1.85 M2.1 118.43 C40.62 76.67, 75.14 33.38, 103.14 2.21 M2.1 118.43 C39.92 75.52, 76.15 33.18, 103.14 2.21 M2.5 124.07 C30.55 95.57, 54.99 65.53, 108.78 1.81 M2.5 124.07 C42.09 80.05, 79.58 37.76, 108.78 1.81 M2.24 130.47 C36.63 94.88, 66.41 56.89, 113.77 2.17 M2.24 130.47 C44.94 85.4, 84.83 37.43, 113.77 2.17 M1.98 136.87 C35.2 98.71, 70.75 56.29, 119.41 1.78 M1.98 136.87 C46.31 84.15, 93.69 30.39, 119.41 1.78 M0.4 144.78 C44.82 92.82, 92.55 40.77, 124.4 2.14 M0.4 144.78 C49.82 90.3, 96.51 36.17, 124.4 2.14 M0.8 150.42 C40.79 105.4, 82.25 54.82, 130.04 1.74 M0.8 150.42 C46.63 95.65, 93 42.28, 130.04 1.74 M1.85 155.31 C28.5 124.91, 55.45 93.32, 135.03 2.1 M1.85 155.31 C44.84 104.35, 88.09 56.29, 135.03 2.1 M2.9 160.2 C38.87 118.8, 74.2 74.05, 140.67 1.71 M2.9 160.2 C51 101.75, 101.15 44.78, 140.67 1.71 M5.26 163.58 C38.64 121.55, 72.66 83.03, 146.97 0.56 M5.26 163.58 C55.84 107.39, 104.99 50.65, 146.97 0.56 M7.62 166.95 C59.5 108.13, 108.74 46.89, 151.96 0.92 M7.62 166.95 C51.7 115.34, 94.84 65.66, 151.96 0.92 M9.99 170.33 C41.67 135.32, 71.8 96.85, 156.94 1.28 M9.99 170.33 C39.7 135.63, 69.84 101.99, 156.94 1.28 M13.01 172.96 C66.83 111.63, 124.56 46.4, 161.28 2.39 M13.01 172.96 C43.62 138.19, 73.54 101.12, 161.28 2.39 M16.68 174.83 C55.13 130.81, 95.37 86.27, 164.95 4.26 M16.68 174.83 C57.48 126.98, 99.99 79.14, 164.95 4.26 M20.36 176.7 C72.08 116.96, 122.63 57.28, 168.63 6.13 M20.36 176.7 C69.65 117.97, 120.89 60.53, 168.63 6.13 M24.69 177.81 C58 136.41, 95.75 96.79, 171.64 8.76 M24.69 177.81 C76.94 119, 129.28 59.78, 171.64 8.76 M29.67 178.17 C69.49 135.02, 107.39 88.3, 174.01 12.14 M29.67 178.17 C67.43 136.24, 105.04 93.82, 174.01 12.14 M34 179.29 C63.36 148.98, 90.72 113.4, 176.37 15.51 M34 179.29 C69.29 139.65, 103.66 98.48, 176.37 15.51 M39.65 178.89 C92.68 117.39, 147.25 51.79, 178.73 18.89 M39.65 178.89 C87.22 125.34, 132.31 71.58, 178.73 18.89 M44.63 179.25 C86.71 131.29, 129.32 80.24, 179.13 24.54 M44.63 179.25 C93.96 121.46, 145.55 62.54, 179.13 24.54 M50.28 178.86 C94.66 128.25, 137.72 79.16, 180.18 29.42 M50.28 178.86 C87.16 135.76, 123.48 94.83, 180.18 29.42 M55.26 179.22 C104.49 124.33, 150.49 71.34, 181.23 34.31 M55.26 179.22 C81.14 148.77, 108.18 118.31, 181.23 34.31 M60.91 178.82 C102.61 133.99, 144.15 86.81, 181.62 39.96 M60.91 178.82 C85.56 151.16, 110.84 122.56, 181.62 39.96 M65.9 179.18 C92.19 147.91, 115.57 119.92, 181.36 46.35 M65.9 179.18 C111.05 126.92, 154.57 77.07, 181.36 46.35 M71.54 178.79 C97.37 148.02, 125.81 113.89, 181.1 52.75 M71.54 178.79 C109.03 135.67, 146.72 92.44, 181.1 52.75 M76.53 179.15 C115.48 132.8, 155.44 83.81, 181.49 58.39 M76.53 179.15 C118.96 131.02, 158.87 83.75, 181.49 58.39 M82.17 178.75 C113.77 137.09, 151.2 97.96, 181.23 64.79 M82.17 178.75 C117.77 141.46, 150.08 101.41, 181.23 64.79 M87.16 179.11 C110.75 149.55, 132.31 122.98, 181.63 70.44 M87.16 179.11 C117.83 143.88, 148.02 108.81, 181.63 70.44 M92.8 178.72 C114.44 151.68, 139.78 127.57, 181.37 76.83 M92.8 178.72 C125.92 140.4, 159.07 101.83, 181.37 76.83 M97.79 179.08 C116.48 157.4, 133.24 134.79, 181.1 83.23 M97.79 179.08 C122.34 150.04, 148.64 120.11, 181.1 83.23 M103.43 178.68 C128.5 153.14, 149.23 124.47, 181.5 88.87 M103.43 178.68 C121.19 157.06, 140.13 137.61, 181.5 88.87 M108.42 179.04 C125.65 160.28, 140.03 141.06, 181.24 95.27 M108.42 179.04 C126.39 159.97, 143.73 139.62, 181.24 95.27 M114.06 178.65 C133.93 153.43, 152.68 132.72, 181.63 100.92 M114.06 178.65 C140.36 147.77, 167.76 118.74, 181.63 100.92 M119.05 179.01 C141.66 152.73, 162.03 130.59, 181.37 107.31 M119.05 179.01 C139.22 156.72, 159.17 133.31, 181.37 107.31 M124.69 178.62 C149.76 151.3, 169.86 126.58, 181.11 113.71 M124.69 178.62 C135.98 164.91, 147 151.87, 181.11 113.71 M129.68 178.98 C140.99 162.25, 156.22 147.18, 181.5 119.35 M129.68 178.98 C143.92 164.1, 156.7 148.4, 181.5 119.35 M134.66 179.34 C148.68 164.34, 158.86 150.11, 181.24 125.75 M134.66 179.34 C147.33 163.26, 161.63 148.44, 181.24 125.75 M140.31 178.94 C154.24 162.65, 171.64 143.67, 181.64 131.39 M140.31 178.94 C152.34 166.3, 164.54 152.18, 181.64 131.39 M147.26 177.04 C154.33 168.13, 161.28 163.42, 181.38 137.79 M147.26 177.04 C158.03 165.48, 167.66 153.38, 181.38 137.79 M152.9 176.64 C158.87 170.47, 166.35 160.49, 179.8 145.7 M152.9 176.64 C163.52 165.26, 172.24 154.16, 179.8 145.7 M159.2 175.49 C165.82 169.01, 171.95 162.53, 178.88 152.85 M159.2 175.49 C166.35 165.6, 175.54 157.02, 178.88 152.85 M163.53 176.61 C167.87 174.02, 169.01 169.08, 177.97 160 M163.53 176.61 C167.81 170.89, 174.3 165.9, 177.97 160" stroke="#fa5252" stroke-width="0.5" fill="none"></path><path d="M32 0 M32 0 C71.42 0.05, 115.75 -0.11, 147 0 M32 0 C76.39 0.14, 120.95 -0.35, 147 0 M147 0 C169.89 -1.89, 178.68 9.14, 179 32 M147 0 C169.11 -0.46, 179.11 8.93, 179 32 M179 32 C181.28 68.03, 181.25 104.8, 179 145 M179 32 C178.51 64.06, 179.98 95.56, 179 145 M179 145 C179.21 167.97, 170.04 178.91, 147 177 M179 145 C179.79 166.01, 169.86 178.06, 147 177 M147 177 C116.82 177.48, 84.32 174.47, 32 177 M147 177 C123.36 176.62, 99.12 176.03, 32 177 M32 177 C12.47 178.17, 1.69 167.75, 0 145 M32 177 C12.16 176.44, 1.84 167.47, 0 145 M0 145 C-1.25 102.58, 2.12 56.76, 0 32 M0 145 C0.98 112.31, -0.33 78.13, 0 32 M0 32 C1.51 10.78, 9.59 0, 32 0 M0 32 C2.28 8.98, 9.1 1.96, 32 0" stroke="#000000" stroke-width="1" fill="none"></path></g><g transform="translate(102 241) rotate(0 33.5 17.5)"><text x="0" y="25" font-family="Virgil, Segoe UI Emoji" font-size="28px" fill="#000000" text-anchor="start" style="white-space: pre;" direction="ltr">Build</text></g><g stroke-linecap="round" transform="translate(91 179) rotate(0 46 14.5)"><path d="M9.24 -1.36 L88.13 1.54 L91.93 5.18 L92.13 23.81 L92.19 28.11 L85.4 28.26 L5.14 29.42 L0.43 23.83 L-0.02 5.33 L3.09 3.7 L6.56 -1.98" stroke="none" stroke-width="0" fill="#fd7e14"></path><path d="M7.25 0 M7.25 0 C32.76 0.62, 56 0.25, 84.75 0 M7.25 0 C36.85 0.26, 66.54 0.77, 84.75 0 M84.75 0 C88.72 -1.45, 93.84 0.91, 92 7.25 M84.75 0 C89.85 -2.02, 93.14 4.39, 92 7.25 M92 7.25 C90.78 11.14, 93.39 13.2, 92 21.75 M92 7.25 C91.9 10.69, 91.8 14.06, 92 21.75 M92 21.75 C91.42 26.92, 91.5 30.09, 84.75 29 M92 21.75 C90.86 28.29, 90.51 29.55, 84.75 29 M84.75 29 C62.66 27.11, 41.91 27.4, 7.25 29 M84.75 29 C59.01 29.49, 32.66 28.17, 7.25 29 M7.25 29 C1.58 30.16, 0.32 25.32, 0 21.75 M7.25 29 C1.89 30.59, 0.61 26.5, 0 21.75 M0 21.75 C0.81 15.32, -1.09 10.59, 0 7.25 M0 21.75 C-0.22 16.45, -0.59 10.31, 0 7.25 M0 7.25 C1.41 1.59, 2.95 1.86, 7.25 0 M0 7.25 C-0.24 1.94, 3.21 2.13, 7.25 0" stroke="#000000" stroke-width="1" fill="none"></path></g><g stroke-linecap="round" transform="translate(92 158.5) rotate(0 46 9.5)"><path d="M3.75 -1.3 L87.42 0 L89.77 2.87 L91.55 15.99 L88 18.5 L2.95 19.14 L0.01 18.06 L-0.12 3.32 L1.97 2.52 L4.05 0.93" stroke="none" stroke-width="0" fill="#996917"></path><path d="M4.75 0 M4.75 0 C32.03 -2.3, 63 0.4, 87.25 0 M4.75 0 C35.68 0.05, 66.77 1.19, 87.25 0 M87.25 0 C91.95 0.3, 90.13 1.57, 92 4.75 M87.25 0 C89.48 1.17, 90.51 0.04, 92 4.75 M92 4.75 C92.75 8.07, 92.92 10.53, 92 14.25 M92 4.75 C91.83 8.45, 91.99 12.53, 92 14.25 M92 14.25 C93.46 15.45, 91.63 17.2, 87.25 19 M92 14.25 C90.01 18.74, 90.33 20.55, 87.25 19 M87.25 19 C55.71 19.38, 28.31 19.64, 4.75 19 M87.25 19 C64.42 19.6, 39.5 18.68, 4.75 19 M4.75 19 C3.48 19.87, 0.14 15.63, 0 14.25 M4.75 19 C3.57 17.61, 1.63 18.58, 0 14.25 M0 14.25 C-0.33 12.68, -0.44 10.85, 0 4.75 M0 14.25 C0.12 10.81, -0.2 7.52, 0 4.75 M0 4.75 C1.54 -0.09, 2.52 0.99, 4.75 0 M0 4.75 C1.07 2.98, 1.57 0.25, 4.75 0" stroke="#000000" stroke-width="1" fill="none"></path></g><g stroke-linecap="round" transform="translate(90 137.5) rotate(0 46 9.5)"><path d="M2.79 1.21 L87.53 -1.44 L92.86 2.6 L93.05 17.51 L87.18 17.4 L0.74 19.74 L0.58 17.63 L-0.29 6.6 L2.67 2.66 L4.72 -1.22" stroke="none" stroke-width="0" fill="#fab005"></path><path d="M4.75 0 M4.75 0 C21.98 -2.14, 40.65 -1.57, 87.25 0 M4.75 0 C34.57 0.33, 65.52 1.19, 87.25 0 M87.25 0 C89.34 1.36, 92.65 3, 92 4.75 M87.25 0 C89.97 0.88, 90.64 0.94, 92 4.75 M92 4.75 C92.52 7.25, 92.52 9.38, 92 14.25 M92 4.75 C92.21 7.79, 92.19 10.06, 92 14.25 M92 14.25 C91.87 17.3, 92.09 17.75, 87.25 19 M92 14.25 C92.46 17.05, 88.68 17.06, 87.25 19 M87.25 19 C53.15 18.25, 21.3 18.82, 4.75 19 M87.25 19 C60.08 17.95, 34.46 19.17, 4.75 19 M4.75 19 C-0.31 17.71, -0.89 15.53, 0 14.25 M4.75 19 C-0.19 17.83, -1.35 18.26, 0 14.25 M0 14.25 C-0.69 12.4, 0.95 9.46, 0 4.75 M0 14.25 C-0.13 12.45, 0.46 9.57, 0 4.75 M0 4.75 C0.96 3.49, 3.54 -1.29, 4.75 0 M0 4.75 C-0.71 2.79, 0.38 -1.91, 4.75 0" stroke="#000000" stroke-width="1" fill="none"></path></g><g stroke-linecap="round" transform="translate(91 115.5) rotate(0 46 9.5)"><path d="M3.68 1.01 L87.45 -0.87 L90.2 2.07 L92.07 15.88 L86.66 17.15 L1.06 18.09 L1.13 14.43 L-1.29 3.86 L-0.7 -0.35 L3.73 -1.17" stroke="none" stroke-width="0" fill="#82c91e"></path><path d="M4.75 0 M4.75 0 C32.54 -0.84, 61.18 2.62, 87.25 0 M4.75 0 C27.88 0.04, 50.48 1.28, 87.25 0 M87.25 0 C89.7 0.96, 93.9 3.54, 92 4.75 M87.25 0 C88.93 -0.71, 93.2 0.38, 92 4.75 M92 4.75 C92.18 7.72, 92.23 8.21, 92 14.25 M92 4.75 C92.1 7.61, 92.44 10.36, 92 14.25 M92 14.25 C91.85 19.01, 91.75 18.33, 87.25 19 M92 14.25 C89.93 18.79, 89.76 19.84, 87.25 19 M87.25 19 C60.34 17.23, 33.4 17.39, 4.75 19 M87.25 19 C64.35 19.55, 41.54 20.21, 4.75 19 M4.75 19 C2.91 17.38, 0.2 19.33, 0 14.25 M4.75 19 C-0.36 21.05, -1.84 15.37, 0 14.25 M0 14.25 C0.5 11.24, 0.62 8.55, 0 4.75 M0 14.25 C0.47 12.17, 0.49 9.65, 0 4.75 M0 4.75 C-1.29 1.97, 0.24 1.35, 4.75 0 M0 4.75 C0.4 1.97, -0.12 1.24, 4.75 0" stroke="#000000" stroke-width="1" fill="none"></path></g><g stroke-linecap="round" transform="translate(90 92.5) rotate(0 46 9.5)"><path d="M6.34 1.33 L88.66 -1.5 L92.9 2.1 L92.44 16.92 L85.54 18.61 L2.95 17.09 L0.83 14.88 L-0.43 3.86 L3.12 1.31 L4.26 0.44" stroke="none" stroke-width="0" fill="#fa5252"></path><path d="M4.75 0 M4.75 0 C33.12 2.58, 59.39 2.45, 87.25 0 M4.75 0 C23.22 -0.59, 41.58 -0.13, 87.25 0 M87.25 0 C91.79 0.8, 90.36 0.54, 92 4.75 M87.25 0 C89.84 2.05, 91.97 3.7, 92 4.75 M92 4.75 C91.3 7.31, 92.1 8.76, 92 14.25 M92 4.75 C92.27 6.82, 91.64 9.44, 92 14.25 M92 14.25 C93.62 16.94, 91.65 20.66, 87.25 19 M92 14.25 C89.9 18.18, 90.11 17.87, 87.25 19 M87.25 19 C60.83 18.23, 30.61 19.3, 4.75 19 M87.25 19 C61.41 20.1, 35.44 20.18, 4.75 19 M4.75 19 C3.56 18.51, -0.57 17.67, 0 14.25 M4.75 19 C0.04 16.83, 2.17 17.07, 0 14.25 M0 14.25 C-0.66 11.26, 0.33 7.93, 0 4.75 M0 14.25 C0.47 10.36, 0.28 6.95, 0 4.75 M0 4.75 C-1.44 3.3, 3.47 -1.38, 4.75 0 M0 4.75 C-0.36 0.46, 3.77 2.11, 4.75 0" stroke="#000000" stroke-width="1" fill="none"></path></g><g stroke-linecap="round" transform="translate(91 59.5) rotate(0 46 14.5)"><path d="M5.65 -1.78 L88.32 1.13 L90.71 5.21 L91.62 26.29 L90.99 25.55 L83.71 28.5 L5.86 28.52 L2.29 22.97 L-1.29 7.63 L0.47 3.16 L7.6 0.34" stroke="none" stroke-width="0" fill="#fd7e14"></path><path d="M7.25 0 M7.25 0 C25.69 -0.97, 40.5 1.03, 84.75 0 M7.25 0 C37.62 -1.39, 66.67 -0.61, 84.75 0 M84.75 0 C88.6 0.72, 92.79 1.2, 92 7.25 M84.75 0 C91.08 -0.31, 90.62 3.34, 92 7.25 M92 7.25 C91.64 12.91, 91.1 17.52, 92 21.75 M92 7.25 C92.06 12.55, 91.28 19.51, 92 21.75 M92 21.75 C91.7 27.88, 91.32 29.32, 84.75 29 M92 21.75 C90.6 27.74, 90.59 30.47, 84.75 29 M84.75 29 C58.09 26.52, 29.03 26.73, 7.25 29 M84.75 29 C66.38 29.58, 48.91 30.68, 7.25 29 M7.25 29 C4.25 29.89, -1.38 25.3, 0 21.75 M7.25 29 C1.67 29.5, 0.09 28.29, 0 21.75 M0 21.75 C0.47 16.36, -0.6 11.31, 0 7.25 M0 21.75 C0.47 19.14, -0.14 15.83, 0 7.25 M0 7.25 C-0.86 3.18, 1.38 0.1, 7.25 0 M0 7.25 C-1.8 2.43, 2.15 0.25, 7.25 0" stroke="#000000" stroke-width="1" fill="none"></path></g><g stroke-linecap="round" transform="translate(407 667) rotate(0 43.5 20.5)"><path d="M51.95 0.67 C59.92 1.19, 69.18 3.09, 75.12 5.89 C81.05 8.7, 86.43 13.3, 87.54 17.5 C88.66 21.7, 86.26 27.6, 81.81 31.12 C77.36 34.63, 68.69 37.01, 60.83 38.61 C52.98 40.22, 43.1 41.48, 34.66 40.75 C26.22 40.03, 15.82 37.25, 10.21 34.26 C4.61 31.28, 1.64 26.88, 1.03 22.86 C0.42 18.85, 2.36 13.84, 6.55 10.16 C10.75 6.49, 17.03 2.2, 26.19 0.83 C35.35 -0.53, 54.49 1.54, 61.49 1.97 C68.5 2.41, 68.42 3.28, 68.23 3.44 M28.25 -0.03 C35.41 -1.6, 45.35 0.04, 53.25 1.2 C61.15 2.35, 69.98 3.73, 75.64 6.88 C81.31 10.04, 86.39 15.78, 87.25 20.1 C88.11 24.42, 85.58 29.4, 80.82 32.79 C76.06 36.18, 66.89 39.18, 58.7 40.46 C50.51 41.74, 39.59 41.51, 31.68 40.46 C23.77 39.41, 16.61 37.48, 11.21 34.16 C5.82 30.84, -0.07 24.87, -0.71 20.54 C-1.35 16.22, 2.63 11.44, 7.37 8.21 C12.1 4.98, 24.41 2.16, 27.68 1.15 C30.96 0.14, 26.96 1.68, 27 2.15" stroke="none" stroke-width="0" fill="#ffffff"></path><path d="M49.21 0.06 C57.19 0.39, 67.17 2.91, 73.43 5.64 C79.69 8.36, 85.19 12.62, 86.77 16.43 C88.36 20.24, 86.87 24.98, 82.94 28.51 C79.02 32.04, 70.78 35.72, 63.2 37.61 C55.63 39.51, 45.97 40.31, 37.5 39.87 C29.04 39.43, 18.51 37.73, 12.43 34.97 C6.34 32.2, 2.43 27.28, 0.98 23.28 C-0.47 19.28, 0.12 14.32, 3.72 10.96 C7.31 7.6, 14.51 4.94, 22.55 3.12 C30.6 1.29, 46.91 0.37, 51.97 0.01 C57.04 -0.34, 53.3 0.51, 52.93 0.99 M25.03 2.24 C32.03 0.17, 42.77 -0.3, 51.03 0.42 C59.29 1.14, 68.56 3.77, 74.57 6.58 C80.58 9.38, 86.13 13.06, 87.07 17.26 C88.01 21.45, 84.58 28, 80.18 31.74 C75.79 35.49, 68.31 38.25, 60.69 39.71 C53.08 41.18, 42.78 41.57, 34.49 40.54 C26.19 39.51, 16.39 36.35, 10.93 33.52 C5.47 30.69, 2.42 27.61, 1.73 23.58 C1.05 19.54, 3.03 12.93, 6.82 9.31 C10.6 5.68, 21.09 3.09, 24.44 1.82 C27.78 0.55, 26.19 1.45, 26.89 1.68" stroke="#000000" stroke-width="1" fill="none"></path></g><g stroke-linecap="round" transform="translate(403 653.5) rotate(0 46 14.5)"><path d="M6.32 -0.59 L88.38 -0.71 L91.63 3.63 L92.41 23.86 L91.48 26.38 L85.87 29.68 L5.14 29.76 L0.91 26.31 L0.96 7.11 L2.04 0.52 L6.9 -1.29" stroke="none" stroke-width="0" fill="#fd7e14"></path><path d="M7.25 0 M7.25 0 C38.78 1.72, 68.51 2.38, 84.75 0 M7.25 0 C22.35 -0.07, 37.86 0.42, 84.75 0 M84.75 0 C90.36 -1.24, 92.35 3.15, 92 7.25 M84.75 0 C87.68 -0.74, 92.18 2.24, 92 7.25 M92 7.25 C92.73 12.43, 91.59 15.8, 92 21.75 M92 7.25 C92.05 11.76, 92.16 15.82, 92 21.75 M92 21.75 C91.96 27.27, 89.48 27.81, 84.75 29 M92 21.75 C93.5 24.98, 89.4 27.28, 84.75 29 M84.75 29 C61.04 27.82, 41.53 28.79, 7.25 29 M84.75 29 C57.78 29, 30.96 29.79, 7.25 29 M7.25 29 C4.11 29.34, -0.69 28.52, 0 21.75 M7.25 29 C1.23 31.16, -1.46 25.04, 0 21.75 M0 21.75 C0.45 18.67, 0.52 14.21, 0 7.25 M0 21.75 C-0.5 17.89, -0.14 12.64, 0 7.25 M0 7.25 C1.73 2.14, 1.53 1.08, 7.25 0 M0 7.25 C0.76 0.19, 3.6 -2.29, 7.25 0" stroke="#000000" stroke-width="1" fill="none"></path></g><g stroke-linecap="round" transform="translate(586 404.5) rotate(0 46 9.5)"><path d="M5.32 -0.63 L90.23 -0.62 L92.93 2.23 L90.74 15.77 L87.88 20.69 L3.01 18.01 L2.23 15.3 L1.88 3.48 L-0.16 0.92 L4.84 -0.13" stroke="none" stroke-width="0" fill="#996917"></path><path d="M4.75 0 M4.75 0 C33.17 -0.24, 60.37 0.61, 87.25 0 M4.75 0 C24.11 0.96, 44.24 -0.35, 87.25 0 M87.25 0 C91.5 0.66, 90.06 2.61, 92 4.75 M87.25 0 C88.13 -1.69, 89.75 0.2, 92 4.75 M92 4.75 C91.49 7.77, 91.9 11.24, 92 14.25 M92 4.75 C92.16 7.42, 92.25 9.42, 92 14.25 M92 14.25 C91.75 18.16, 89.29 17.66, 87.25 19 M92 14.25 C93.68 16.96, 88.95 20.29, 87.25 19 M87.25 19 C64.52 19.07, 40.85 19.48, 4.75 19 M87.25 19 C69.55 18.89, 51.37 19.68, 4.75 19 M4.75 19 C3.03 17.2, 0.37 18.27, 0 14.25 M4.75 19 C2.17 17.26, -2.26 15.97, 0 14.25 M0 14.25 C-0.96 11.69, 0.87 8.08, 0 4.75 M0 14.25 C0.3 12.15, -0.32 8.91, 0 4.75 M0 4.75 C-0.89 -0.26, -0.11 1.68, 4.75 0 M0 4.75 C-1.47 1.86, -0.42 -0.24, 4.75 0" stroke="#000000" stroke-width="1" fill="none"></path></g><g stroke-linecap="round" transform="translate(284 489.5) rotate(0 46 9.5)"><path d="M4.5 0.74 L88.21 -1.04 L93.16 2.28 L90.43 17.45 L86.67 19.34 L3.81 18.32 L-0.1 14.64 L0.01 3.11 L-0.49 1.25 L5.34 -0.29" stroke="none" stroke-width="0" fill="#fab005"></path><path d="M4.75 0 M4.75 0 C28.72 -0.23, 57.15 -0.09, 87.25 0 M4.75 0 C23.77 1.23, 41.22 -0.42, 87.25 0 M87.25 0 C92.08 1.98, 93.1 0.89, 92 4.75 M87.25 0 C88.49 -0.79, 93.06 3.62, 92 4.75 M92 4.75 C91.06 6, 92.74 8.25, 92 14.25 M92 4.75 C91.72 7.94, 91.8 10.87, 92 14.25 M92 14.25 C90.24 17.85, 89.15 17.7, 87.25 19 M92 14.25 C94.28 17.31, 92.66 18.43, 87.25 19 M87.25 19 C66.71 20.03, 48.81 17.54, 4.75 19 M87.25 19 C67.36 18.62, 46.49 17.91, 4.75 19 M4.75 19 C-0.28 18.24, 0.49 15.49, 0 14.25 M4.75 19 C-0.01 18.36, -0.41 18.15, 0 14.25 M0 14.25 C0.25 11.66, -0.31 9.95, 0 4.75 M0 14.25 C0.13 11.63, -0.36 9.25, 0 4.75 M0 4.75 C0.33 2.92, 0.03 -0.91, 4.75 0 M0 4.75 C-1.92 1.95, 2.83 0.43, 4.75 0" stroke="#000000" stroke-width="1" fill="none"></path></g><g stroke-linecap="round" transform="translate(389 303.5) rotate(0 46 9.5)"><path d="M2.78 -1.26 L90.37 1.71 L90.64 0.79 L93.37 18.3 L88.35 18.31 L1 18.02 L1.22 18.1 L-1.68 3.48 L0.29 -0.65 L3.05 1.68" stroke="none" stroke-width="0" fill="#82c91e"></path><path d="M4.75 0 M4.75 0 C24.03 -0.1, 44.7 0.23, 87.25 0 M4.75 0 C32.23 -0.83, 61.98 -0.23, 87.25 0 M87.25 0 C92.37 -0.49, 90.86 1.36, 92 4.75 M87.25 0 C88.71 -0.58, 93.89 3.46, 92 4.75 M92 4.75 C91.09 8.09, 92.3 10.51, 92 14.25 M92 4.75 C92.03 6.82, 91.58 9.67, 92 14.25 M92 14.25 C91.64 18.06, 89.83 17.36, 87.25 19 M92 14.25 C91.76 17.84, 90.37 18.05, 87.25 19 M87.25 19 C56.43 20.19, 23.65 18.11, 4.75 19 M87.25 19 C53.6 19.1, 20.67 19.71, 4.75 19 M4.75 19 C2.67 19.37, 0.99 17.97, 0 14.25 M4.75 19 C2.44 21.05, 0.99 17.78, 0 14.25 M0 14.25 C-0.51 11.17, 0.68 8.76, 0 4.75 M0 14.25 C-0.39 11.94, -0.19 9.43, 0 4.75 M0 4.75 C1.92 0.53, 1.02 0.15, 4.75 0 M0 4.75 C-1.82 2.93, 3.28 -2.1, 4.75 0" stroke="#000000" stroke-width="1" fill="none"></path></g><g stroke-linecap="round" transform="translate(748 294.5) rotate(0 46 9.5)"><path d="M5.8 1.42 L88.26 -1.58 L93.37 4.65 L92.81 15.63 L85.57 18.31 L3.59 20.48 L-1.38 15.06 L-0.89 2.91 L-0.51 2.87 L3.47 0.24" stroke="none" stroke-width="0" fill="#996917"></path><path d="M4.75 0 M4.75 0 C23.27 -0.16, 40.68 -1.43, 87.25 0 M4.75 0 C32.29 0.49, 58.83 0.29, 87.25 0 M87.25 0 C89.27 -0.22, 90.52 1.08, 92 4.75 M87.25 0 C92.31 1.88, 91.02 0.49, 92 4.75 M92 4.75 C92.26 9.16, 91.59 10.96, 92 14.25 M92 4.75 C91.69 7.1, 91.94 9.88, 92 14.25 M92 14.25 C91.41 15.78, 90.2 19.36, 87.25 19 M92 14.25 C91.95 16.47, 92.45 18.72, 87.25 19 M87.25 19 C58.79 18.01, 31.36 19.65, 4.75 19 M87.25 19 C56.16 18.78, 27.27 18.81, 4.75 19 M4.75 19 C2.57 19.55, 0.75 19.2, 0 14.25 M4.75 19 C2.58 19.36, -1.25 19.06, 0 14.25 M0 14.25 C0.79 11.11, -0.25 10.31, 0 4.75 M0 14.25 C-0.06 12.34, 0.52 9.56, 0 4.75 M0 4.75 C-0.57 1.73, 0 1.17, 4.75 0 M0 4.75 C1.7 -0.51, 2.43 -1.24, 4.75 0" stroke="#000000" stroke-width="1" fill="none"></path></g><g stroke-linecap="round" transform="translate(487 172.5) rotate(0 46 14.5)"><path d="M6.18 -1.88 L89.59 2.43 L92.65 3.38 L89.87 24.23 L91.11 28.96 L83.07 27.73 L3.18 26.7 L-1.24 26.6 L-1.28 7.49 L0.07 1.6 L6.43 0.97" stroke="none" stroke-width="0" fill="#fd7e14"></path><path d="M7.25 0 M7.25 0 C29.02 -0.59, 48.62 2.67, 84.75 0 M7.25 0 C29.55 0.08, 52.26 -0.06, 84.75 0 M84.75 0 C91.23 1.63, 91.15 1.47, 92 7.25 M84.75 0 C91.28 -2.09, 94.17 3.26, 92 7.25 M92 7.25 C91.4 13.27, 90.56 17.58, 92 21.75 M92 7.25 C91.76 10.6, 91.9 15.27, 92 21.75 M92 21.75 C91.96 25.76, 91.35 28.76, 84.75 29 M92 21.75 C93.17 27.98, 90.47 29.54, 84.75 29 M84.75 29 C67.9 27.58, 47.47 27.46, 7.25 29 M84.75 29 C60.76 29.42, 36.16 30.03, 7.25 29 M7.25 29 C3.28 29.32, -1.09 28.01, 0 21.75 M7.25 29 C1.12 27.92, -1.82 28.4, 0 21.75 M0 21.75 C-0.92 17.67, 0.8 15.2, 0 7.25 M0 21.75 C-0.34 16.53, -0.71 11.62, 0 7.25 M0 7.25 C1.48 0.59, 3.16 -1.08, 7.25 0 M0 7.25 C1.34 2.89, 4.56 0.68, 7.25 0" stroke="#000000" stroke-width="1" fill="none"></path></g><g stroke-linecap="round"><g transform="translate(534 212) rotate(0 -1.5292109176330086 23.15979493616149)"><path d="M0.49 -1.06 C-0.06 6.7, -2.03 38.03, -2.74 46.24 M-0.71 1 C-1.45 8.92, -3.45 39.8, -3.55 47.38" stroke="#000000" stroke-width="1" fill="none"></path></g><g transform="translate(534 212) rotate(0 -1.5292109176330086 23.15979493616149)"><path d="M-12.39 25.36 C-9.49 31.41, -3.77 40.44, -1.6 46.88 M-10.89 25.74 C-8.12 30, -7.69 36.62, -4.46 48.32" stroke="#000000" stroke-width="1" fill="none"></path></g><g transform="translate(534 212) rotate(0 -1.5292109176330086 23.15979493616149)"><path d="M3.7 26.06 C1 31.93, 1.11 40.72, -1.6 46.88 M5.21 26.44 C4.06 30.41, 0.59 36.86, -4.46 48.32" stroke="#000000" stroke-width="1" fill="none"></path></g></g><mask></mask><g stroke-linecap="round"><g transform="translate(434 335) rotate(0 -0.03481641964424398 20.17415044442751)"><path d="M0.61 0.73 C0.51 7.47, 0.69 33.54, 0.46 40.28 M-0.53 0.06 C-0.84 6.44, -0.62 31.74, -0.24 38.31" stroke="#000000" stroke-width="1" fill="none"></path></g><g transform="translate(434 335) rotate(0 -0.03481641964424398 20.17415044442751)"><path d="M-6.41 20.49 C-4.3 25.59, 0.06 34.45, 1.09 36.76 M-7.07 19.91 C-5.4 24.71, -3.65 30.06, 0.19 38.47" stroke="#000000" stroke-width="1" fill="none"></path></g><g transform="translate(434 335) rotate(0 -0.03481641964424398 20.17415044442751)"><path d="M7.27 20.1 C4.06 25.42, 3.11 34.43, 1.09 36.76 M6.6 19.51 C4.79 24.44, 3.07 29.89, 0.19 38.47" stroke="#000000" stroke-width="1" fill="none"></path></g></g><mask></mask><g stroke-linecap="round"><g transform="translate(330 517) rotate(0 1.0539649768133472 18.779004236347987)"><path d="M-0.37 0.86 C-0.49 7.07, -0.13 30.21, 0.2 36.18 M1.64 0.27 C1.82 6.7, 2.57 31.02, 2.49 37.29" stroke="#000000" stroke-width="1" fill="none"></path></g><g transform="translate(330 517) rotate(0 1.0539649768133472 18.779004236347987)"><path d="M-2.72 18.74 C-2.98 27.52, 0.29 34.3, 4.27 36.32 M-3.51 20.66 C-3.1 25.07, -0.98 29.97, 2.68 38.15" stroke="#000000" stroke-width="1" fill="none"></path></g><g transform="translate(330 517) rotate(0 1.0539649768133472 18.779004236347987)"><path d="M9.94 18.59 C4.88 27.39, 3.35 34.22, 4.27 36.32 M9.15 20.5 C6.12 24.86, 4.8 29.8, 2.68 38.15" stroke="#000000" stroke-width="1" fill="none"></path></g></g><mask></mask><g stroke-linecap="round"><g transform="translate(636 432) rotate(0 0.3881744466349346 17.469051057472825)"><path d="M0.29 -1.13 C0.02 4.84, -0.68 30.15, -0.61 36.07 M-1.01 0.9 C-0.98 6.53, 1.56 28.76, 1.79 34.5" stroke="#000000" stroke-width="1" fill="none"></path></g><g transform="translate(636 432) rotate(0 0.3881744466349346 17.469051057472825)"><path d="M-7.13 17.7 C-1.1 25.78, -0.79 31.08, 2.16 34.44 M-6.16 18.4 C-1.9 25.74, 0.44 31.61, 1.73 35.15" stroke="#000000" stroke-width="1" fill="none"></path></g><g transform="translate(636 432) rotate(0 0.3881744466349346 17.469051057472825)"><path d="M4.8 16.75 C6.23 25.22, 1.94 30.89, 2.16 34.44 M5.77 17.44 C5.35 25.08, 3.02 31.32, 1.73 35.15" stroke="#000000" stroke-width="1" fill="none"></path></g></g><mask></mask><g stroke-linecap="round"><g transform="translate(797 323) rotate(0 -0.13980053723787478 25.442159831151372)"><path d="M0.88 -0.56 C0.63 8.02, -0.29 42.89, -0.83 51.45 M-0.11 1.76 C-0.48 9.98, -0.63 41.2, -1.16 49.56" stroke="#000000" stroke-width="1" fill="none"></path></g><g transform="translate(797 323) rotate(0 -0.13980053723787478 25.442159831151372)"><path d="M-10.07 27.26 C-5.55 33.29, -3.86 44.28, -2.96 48.89 M-8.96 25.01 C-7.28 33.13, -4.51 41.84, -1.67 50.42" stroke="#000000" stroke-width="1" fill="none"></path></g><g transform="translate(797 323) rotate(0 -0.13980053723787478 25.442159831151372)"><path d="M7.38 27.82 C5.66 33.78, 1.12 44.57, -2.96 48.89 M8.49 25.56 C4.22 33.58, 1.03 42.1, -1.67 50.42" stroke="#000000" stroke-width="1" fill="none"></path></g></g><mask></mask><g stroke-linecap="round"><g transform="translate(556 697) rotate(0 40.239236521348346 -0.43095392592556436)"><path d="M-0.99 -0.88 C12.5 -1.41, 67.95 -1.95, 81.47 -2.15 M0.69 1.27 C14.02 1.46, 67.12 -0.35, 80.77 -0.69" stroke="#000000" stroke-width="1" fill="none"></path></g><g transform="translate(556 697) rotate(0 40.239236521348346 -0.43095392592556436)"><path d="M51.42 11.17 C62.11 5.36, 71.83 1.79, 81 0.37 M53.18 11.17 C61.35 7.72, 69.81 4.38, 81.38 0.2" stroke="#000000" stroke-width="1" fill="none"></path></g><g transform="translate(556 697) rotate(0 40.239236521348346 -0.43095392592556436)"><path d="M50.82 -9.34 C61.89 -8.11, 71.82 -4.65, 81 0.37 M52.58 -9.34 C60.84 -6.76, 69.48 -4.06, 81.38 0.2" stroke="#000000" stroke-width="1" fill="none"></path></g></g><mask></mask><g stroke-linecap="round"><g transform="translate(489 721) rotate(0 -49.53720293838529 0.15932663824645488)"><path d="M-1.08 -0.94 C-17.53 -0.89, -82.83 -1, -99.13 -0.65 M0.55 1.19 C-15.94 1.46, -83.02 0.84, -99.62 0.55" stroke="#000000" stroke-width="1" fill="none"></path></g><g transform="translate(489 721) rotate(0 -49.53720293838529 0.15932663824645488)"><path d="M-72.87 -7.92 C-79.95 -5.16, -84.41 -4.77, -99.11 0.71 M-70.85 -8.51 C-79.24 -6.36, -88.02 -3.88, -99.1 0.19" stroke="#000000" stroke-width="1" fill="none"></path></g><g transform="translate(489 721) rotate(0 -49.53720293838529 0.15932663824645488)"><path d="M-73.12 12.6 C-79.98 9.94, -84.37 4.91, -99.11 0.71 M-71.1 12.01 C-79.59 8.07, -88.29 4.46, -99.1 0.19" stroke="#000000" stroke-width="1" fill="none"></path></g></g><mask></mask><g stroke-linecap="round" transform="translate(40.18301230222863 626.0934119024471) rotate(0 22.08487971290191 20.32702338216245)"><path d="M16.12 0.58 C20.38 -0.74, 26.81 -0.31, 30.99 1.39 C35.17 3.09, 39.14 6.88, 41.2 10.8 C43.25 14.71, 44.27 20.59, 43.33 24.9 C42.38 29.21, 39.33 34.01, 35.53 36.66 C31.73 39.3, 25.22 41.04, 20.55 40.78 C15.87 40.52, 11.03 38.01, 7.49 35.08 C3.96 32.14, -0.01 27.66, -0.66 23.14 C-1.32 18.63, 0.61 11.72, 3.55 7.98 C6.49 4.23, 14.19 1.83, 16.98 0.68 C19.77 -0.47, 20.04 0.7, 20.28 1.07 M22.99 1.35 C27.46 1.25, 33.46 2.36, 37.03 4.9 C40.61 7.45, 43.91 12.15, 44.45 16.63 C44.99 21.11, 42.94 28.23, 40.28 31.79 C37.63 35.36, 32.93 36.6, 28.51 38.01 C24.08 39.41, 17.74 41.69, 13.74 40.2 C9.73 38.71, 6.91 32.76, 4.45 29.08 C2 25.4, -1.39 22.12, -1.02 18.12 C-0.64 14.13, 2.91 8.11, 6.69 5.1 C10.48 2.08, 19.15 0.92, 21.72 0.05 C24.29 -0.83, 21.81 -0.31, 22.12 -0.16" stroke="#000000" stroke-width="2" fill="none"></path></g><g stroke-linecap="round"><g transform="translate(60.449556574045744 666.5212941632867) rotate(0 -0.9480411255223942 24.384780786290094)"><path d="M-0.36 -0.67 C-0.77 7.56, -2.17 40.09, -2.45 48.38 M1.66 1.59 C1.06 10.04, -2.82 41.33, -3.55 49.44" stroke="#000000" stroke-width="2" fill="none"></path></g></g><mask></mask><g stroke-linecap="round"><g transform="translate(57.865386792257084 717.7851480806034) rotate(0 10.08403634063842 15.152305169397778)"><path d="M-0.67 -0.29 C2.6 4.8, 15.28 25.14, 18.6 30.18 M1.18 -1.48 C4.91 3.85, 17.97 26.34, 20.84 31.79" stroke="#000000" stroke-width="2" fill="none"></path></g></g><mask></mask><g stroke-linecap="round"><g transform="translate(57.25780948622685 716.9234169877824) rotate(0 -8.887508220161948 12.998103122406974)"><path d="M-0.29 -0.91 C-3.34 3.45, -15.56 21.13, -18.66 25.49 M1.76 1.23 C-1.4 5.83, -15.96 22.71, -19.54 26.9" stroke="#000000" stroke-width="2" fill="none"></path></g></g><mask></mask><g stroke-linecap="round"><g transform="translate(40.916966447907214 676.2095363692413) rotate(0 8.901696549026411 9.352325263544856)"><path d="M-0.91 0.13 C2.32 3.19, 15.48 15.22, 18.71 18.08 M0.82 -0.85 C3.93 2.43, 14.86 16.39, 17.64 19.56" stroke="#000000" stroke-width="2" fill="none"></path></g></g><mask></mask><g stroke-linecap="round"><g transform="translate(61.417590610892546 694.5331536296637) rotate(0 12.966260109127262 -8.044974939100712)"><path d="M0.13 -0.24 C4.71 -2.73, 22.82 -13.2, 27.2 -15.85 M-1.27 -1.41 C3.17 -3.66, 21.17 -12.24, 26.19 -14.55" stroke="#000000" stroke-width="2" fill="none"></path></g></g><mask></mask><g stroke-linecap="round"><g transform="translate(33.10210392347875 629.9494575372676) rotate(0 30.59477208743465 5.935401515618821)"><path d="M-0.24 -0.11 C10.41 1.87, 52.52 9.88, 63.01 12.02 M-1.83 -1.22 C8.71 0.88, 50.66 10.57, 61.83 13.09" stroke="#000000" stroke-width="2" fill="none"></path></g></g><mask></mask><g stroke-linecap="round" transform="translate(53.300139513996726 588.7025927716893) rotate(10.74366233694554 16.35750011333016 22.990451630855887)"><path d="M0.12 0.84 L34.49 0.98 L32.52 46.97 L-0.66 44.39" stroke="none" stroke-width="0" fill="#fff"></path><path d="M-0.75 -1.49 C8.9 -0.34, 19.6 0.98, 32.47 0.03 M-0.78 0.7 C10.16 -1.02, 20.07 0.23, 33.56 0.51 M33.99 -1.12 C34.23 16.95, 34 30.53, 33.55 45.81 M31.78 -0.56 C33.63 11.86, 32.16 20.87, 33.57 45.21 M32.81 45.22 C24.21 44.55, 9.97 45.95, -1.35 46.02 M33.57 46.6 C21.36 44.88, 9.02 45.08, -0.04 46.06 M-1.33 46.83 C-1.6 36.63, -0.67 27.32, -1.03 1.26 M0.02 46.78 C1.08 34.56, 0.6 22.73, -0.71 0.61" stroke="#000000" stroke-width="2" fill="none"></path></g><g stroke-linecap="round"><g transform="translate(62.474831572470464 655.2794854093609) rotate(0 0.22488725113271357 5.605936719932345)" fill-rule="evenodd"><path d="M1.27 1.8 L21.02 6.58 L28.23 1.85 L22.58 11.95 L19.02 9.29 L-1.28 7.54 L-14.53 6.82 L-24.55 4.97 L-27.36 -1.38 L-16.92 3.88 L0.1 -0.76" stroke="none" stroke-width="0" fill="#000" fill-rule="evenodd"></path><path d="M-0.45 -0.89 C2.14 0.1, 11.55 4.67, 15.3 5.83 C19.05 6.98, 20.06 6.67, 22.05 6.04 C24.04 5.4, 26.91 1.2, 27.25 2.04 C27.58 2.88, 25.95 9.8, 24.06 11.08 C22.18 12.35, 19.83 10.5, 15.94 9.7 C12.04 8.9, 6.28 6.56, 0.68 6.26 C-4.92 5.96, -13.3 9.07, -17.66 7.9 C-22.03 6.72, -25.78 -0.17, -25.48 -0.79 C-25.18 -1.41, -20.22 4.04, -15.87 4.17 C-11.52 4.3, -2.15 0.8, 0.62 0 M1.52 1.25 C4.52 2.44, 14.36 6.79, 17.61 7.25 C20.87 7.7, 19.43 4.68, 21.06 3.99 C22.69 3.31, 27.14 1.83, 27.42 3.15 C27.69 4.48, 24.36 10.5, 22.7 11.95 C21.04 13.39, 21.53 13.02, 17.43 11.83 C13.33 10.63, 3.62 5.55, -1.89 4.77 C-7.4 3.98, -11.46 8.18, -15.64 7.11 C-19.83 6.05, -27.13 -1.1, -26.98 -1.64 C-26.84 -2.17, -19.49 3.47, -14.78 3.9 C-10.07 4.34, -1.15 1.87, 1.27 0.98" stroke="#000000" stroke-width="1" fill="none"></path></g></g><mask></mask><g stroke-linecap="round" transform="translate(44.9747296794107 638.6129558109897) rotate(0 7.235162164231923 5.761438751069534)"><path d="M6.44 0.04 C7.99 -0.09, 10.21 1.21, 11.53 1.78 C12.85 2.35, 13.85 2.43, 14.35 3.46 C14.85 4.48, 15.35 6.8, 14.51 7.94 C13.68 9.07, 10.83 9.56, 9.35 10.26 C7.88 10.97, 6.93 12.33, 5.68 12.18 C4.42 12.03, 2.7 10.54, 1.84 9.39 C0.99 8.24, 0.39 6.66, 0.54 5.29 C0.69 3.91, 1.55 1.88, 2.73 1.15 C3.91 0.42, 6.76 1.06, 7.63 0.9 C8.5 0.75, 7.97 0.3, 7.94 0.23 M3.57 -0.55 C4.85 -0.55, 9.25 1.51, 10.68 1.89 C12.12 2.26, 11.35 1.05, 12.17 1.7 C12.99 2.35, 15.63 4.41, 15.6 5.79 C15.58 7.16, 13.44 9, 12.02 9.97 C10.59 10.94, 8.75 11.33, 7.05 11.59 C5.35 11.86, 3.18 12.6, 1.84 11.55 C0.49 10.49, -0.88 6.9, -1.01 5.26 C-1.14 3.63, 0.06 2.36, 1.06 1.71 C2.06 1.05, 4.18 1.7, 5.01 1.34 C5.84 0.98, 5.79 -0.51, 6.04 -0.44" stroke="#000000" stroke-width="1" fill="none"></path></g><g stroke-linecap="round" transform="translate(51.54101587691042 643.1575908994246) rotate(0 0.37748672161208674 0.4956896344401116)"><path d="M0.33 0.18 C0.45 0.2, 1.39 0.06, 1.32 0.2 C1.26 0.34, 0.09 1.11, -0.05 1.03 C-0.19 0.94, 0.52 -0.34, 0.5 -0.31 C0.49 -0.28, -0.25 0.9, -0.14 1.2 C-0.03 1.5, 1.07 1.47, 1.16 1.5 C1.25 1.52, 0.58 1.39, 0.38 1.33 C0.19 1.27, 0.14 1.22, 0 1.14 C-0.15 1.05, -0.68 0.92, -0.48 0.82 C-0.27 0.71, 1.08 0.59, 1.25 0.53 C1.41 0.46, 0.66 0.61, 0.5 0.43 M-0.3 0.8 C0.21 0.84, 2.25 -1.34, 2.19 -1.16 C2.14 -0.97, -0.14 1.52, -0.6 1.91 C-1.07 2.31, -0.67 1.36, -0.57 1.22 C-0.46 1.07, -0.11 1.19, 0.02 1.04 C0.14 0.88, -0.06 0.54, 0.18 0.27 C0.43 0.01, 1.73 -0.53, 1.49 -0.55 C1.26 -0.56, -0.87 0.08, -1.24 0.18 C-1.61 0.28, -1.2 -0.1, -0.73 0.05 C-0.26 0.19, 1.53 0.85, 1.6 1.06 C1.67 1.28, -0.28 1.31, -0.3 1.34" stroke="#000000" stroke-width="1" fill="none"></path></g><g stroke-linecap="round" transform="translate(71.40291822921648 644.869626636837) rotate(0 0.3812997188001077 0.6482095219601547)"><path d="M0.65 0.78 C0.77 0.67, 0.69 -0.46, 0.82 -0.52 C0.96 -0.57, 1.66 0.31, 1.47 0.46 C1.28 0.61, -0.19 0.11, -0.32 0.39 C-0.45 0.67, 0.53 1.96, 0.7 2.14 C0.87 2.32, 0.71 1.7, 0.68 1.48 C0.66 1.26, 0.54 1.1, 0.53 0.83 C0.53 0.55, 0.62 -0.2, 0.67 -0.17 C0.72 -0.15, 0.79 0.91, 0.85 0.97 C0.91 1.02, 1.01 0.32, 1.03 0.15 C1.05 -0.01, 1.15 -0.15, 0.95 -0.01 M0.99 1.52 C1.06 1.38, -1.12 -0.92, -0.95 -1.32 C-0.78 -1.71, 1.65 -1.15, 1.99 -0.86 C2.33 -0.57, 1.29 0.07, 1.07 0.41 C0.86 0.75, 0.89 0.81, 0.69 1.2 C0.48 1.6, 0.1 3.01, -0.17 2.79 C-0.44 2.56, -0.96 0.35, -0.93 -0.15 C-0.91 -0.65, -0.19 -0.48, -0.02 -0.23 C0.15 0.03, -0.14 1.5, 0.07 1.4 C0.29 1.31, 1.01 -0.72, 1.25 -0.79 C1.49 -0.86, 1.5 1.07, 1.52 0.99" stroke="#000000" stroke-width="1" fill="none"></path></g><g stroke-linecap="round" transform="translate(112 645) rotate(0 54.5 25)"><path d="M13.81 1.33 L96.75 0.5 L104.6 -0.11 L106.98 5.05 L110.31 9.42 L107.37 36.95 L108.53 47.04 L103.07 48.85 L95.58 48.94 L12.18 50.09 L3.35 46.91 L1.83 43.57 L1.6 40.45 L-0.83 8.03 L1.29 2.19 L13.1 -1" stroke="none" stroke-width="0" fill="#ffffff"></path><path d="M12.5 0 M12.5 0 C44.64 -0.18, 74.81 -0.65, 96.5 0 M12.5 0 C28.42 1.25, 46.91 1.66, 96.5 0 M96.5 0 C106.32 1.83, 110.4 3.06, 109 12.5 M96.5 0 C103.5 2.22, 109.39 2.13, 109 12.5 M109 12.5 C109.01 20.18, 110.58 30.02, 109 37.5 M109 12.5 C109.11 22.27, 108.41 32.56, 109 37.5 M109 37.5 C107.54 45.78, 105.51 48.37, 96.5 50 M109 37.5 C107.22 44.36, 104.99 48.35, 96.5 50 M96.5 50 C76.24 49.83, 58.95 51.43, 12.5 50 M96.5 50 C69.38 50.22, 44.55 50.05, 12.5 50 M12.5 50 C3.67 48.1, -1.13 44.1, 0 37.5 M12.5 50 C5.5 50.55, -0.91 44.44, 0 37.5 M0 37.5 C0.13 29.52, 0.13 22.75, 0 12.5 M0 37.5 C-1.18 31.02, 0.05 23.37, 0 12.5 M0 12.5 C1.58 3.49, 2.84 1.92, 12.5 0 M0 12.5 C0.1 5.23, 4.15 -1.08, 12.5 0" stroke="#000000" stroke-width="1" fill="none"></path></g><g stroke-linecap="round" transform="translate(113 645) rotate(0 16.5 11)"><path d="M6.03 -1.05 L25.75 -0.3 L30.95 -0.44 L34.67 4.05 L30.88 21.89 L27.32 22.45 L6.07 21.19 L3.18 19.46 L-1.32 14.83 L-0.8 2.59 L3.67 -1.61" stroke="none" stroke-width="0" fill="#fa5252"></path><path d="M5.5 0 M5.5 0 C8.71 2.02, 15.59 1.43, 27.5 0 M5.5 0 C11.71 -0.37, 17.04 0.28, 27.5 0 M27.5 0 C32.77 0.96, 31.38 1.23, 33 5.5 M27.5 0 C32.22 0.26, 31.39 0, 33 5.5 M33 5.5 C33.93 9.15, 34.03 14.54, 33 16.5 M33 5.5 C32.52 7.27, 32.81 9.71, 33 16.5 M33 16.5 C33.32 21.51, 31.04 23.53, 27.5 22 M33 16.5 C32.52 21.37, 31.82 20.37, 27.5 22 M27.5 22 C21.65 23.73, 12.33 20.63, 5.5 22 M27.5 22 C22.82 22.53, 17.43 21.55, 5.5 22 M5.5 22 C0.65 23.22, 1.6 19.28, 0 16.5 M5.5 22 C2.89 22.5, 2.1 18.35, 0 16.5 M0 16.5 C-0.56 11.73, -0.34 9.29, 0 5.5 M0 16.5 C-0.5 12.99, 0.08 8.44, 0 5.5 M0 5.5 C-1.42 -0.04, 1.1 1.17, 5.5 0 M0 5.5 C-1.21 1.63, 2.71 -1.49, 5.5 0" stroke="#000000" stroke-width="1" fill="none"></path></g><g stroke-linecap="round" transform="translate(150.5 670) rotate(0 16.5 11)"><path d="M7.03 -0.42 L28.54 0.57 L30.2 2.35 L32.24 5.13 L33.45 22.39 L27.67 20.67 L3.94 23.39 L1.82 21.05 L0.95 15.92 L-0.65 1.91 L6.72 1.6" stroke="none" stroke-width="0" fill="#fa5252"></path><path d="M5.5 0 M5.5 0 C12.95 -1.62, 17.7 -0.88, 27.5 0 M5.5 0 C11.91 0.58, 19.45 -0.08, 27.5 0 M27.5 0 C29.23 -1.92, 33.91 2, 33 5.5 M27.5 0 C28.91 -1.63, 30.84 1, 33 5.5 M33 5.5 C33.36 8.73, 32.95 13.22, 33 16.5 M33 5.5 C33.01 8.9, 33.29 12, 33 16.5 M33 16.5 C33.43 19.17, 31.78 22.12, 27.5 22 M33 16.5 C31.16 19.29, 32.71 23.69, 27.5 22 M27.5 22 C20.11 20.74, 14.63 20.75, 5.5 22 M27.5 22 C22.2 21.17, 16.14 22.68, 5.5 22 M5.5 22 C3.2 23.48, 1.12 21.26, 0 16.5 M5.5 22 C1.11 19.89, 1.52 19.22, 0 16.5 M0 16.5 C-0.01 14.33, -0.58 12.3, 0 5.5 M0 16.5 C-0.6 12.55, -0.44 8.65, 0 5.5 M0 5.5 C-1.68 1.58, 3.36 -0.52, 5.5 0 M0 5.5 C-1.66 1.85, 3.13 1.58, 5.5 0" stroke="#000000" stroke-width="1" fill="none"></path></g><g stroke-linecap="round" transform="translate(186.5 647) rotate(0 16.5 11)"><path d="M6.89 0.45 L27.93 0.95 L31.04 0.38 L31.82 6.72 L33.22 19.74 L28.42 22.44 L7.32 20.42 L2.32 19.79 L0.15 15.39 L-1.38 2.39 L6.28 0.83" stroke="none" stroke-width="0" fill="#fa5252"></path><path d="M5.5 0 M5.5 0 C12.41 0.38, 15.54 -1.21, 27.5 0 M5.5 0 C9.51 -0.22, 14.96 -0.78, 27.5 0 M27.5 0 C31.18 -0.31, 32.81 3.09, 33 5.5 M27.5 0 C32.06 -0.26, 33.84 2.75, 33 5.5 M33 5.5 C33.36 9.08, 32.14 12.1, 33 16.5 M33 5.5 C33.42 9.26, 33.09 13.26, 33 16.5 M33 16.5 C34.96 19.02, 30.73 20.5, 27.5 22 M33 16.5 C34.69 22.06, 28.89 24.05, 27.5 22 M27.5 22 C20.88 23.25, 11.38 20.33, 5.5 22 M27.5 22 C19.69 22.57, 11.41 22.04, 5.5 22 M5.5 22 C0.83 23.12, 1.52 21.09, 0 16.5 M5.5 22 C2.28 19.71, 0.8 18.55, 0 16.5 M0 16.5 C0.93 12.06, -0.7 8.21, 0 5.5 M0 16.5 C-0.07 12.08, -0.47 8.81, 0 5.5 M0 5.5 C1.4 2.64, 2.34 1.02, 5.5 0 M0 5.5 C-1.15 0.04, 2.86 -1.31, 5.5 0" stroke="#000000" stroke-width="1" fill="none"></path></g><g stroke-linecap="round" transform="translate(112 693) rotate(0 8.5 30)"><path d="M2.29 -1.42 L12.73 -0.46 L17.9 1.34 L16.82 56.52 L13.31 59.75 L2.08 59.55 L1.53 58.39 L-0.23 4.98 L1.86 1.44 L4.68 -1" stroke="none" stroke-width="0" fill="#996917"></path><path d="M4.25 0 M4.25 0 C6.74 0.64, 10.49 0.38, 12.75 0 M4.25 0 C7.09 0.41, 10.17 -0.09, 12.75 0 M12.75 0 C14.09 1.47, 18.65 -0.56, 17 4.25 M12.75 0 C17.63 1.2, 18.57 3.12, 17 4.25 M17 4.25 C15.45 23.92, 16.46 39.32, 17 55.75 M17 4.25 C17.6 20.45, 17.94 38.42, 17 55.75 M17 55.75 C17.93 58.97, 13.59 60.7, 12.75 60 M17 55.75 C15.39 60.36, 13.65 59.71, 12.75 60 M12.75 60 C9.56 60.42, 6.94 59.76, 4.25 60 M12.75 60 C10.31 60.24, 7.81 60.05, 4.25 60 M4.25 60 C2.43 59, -1.56 59.47, 0 55.75 M4.25 60 C0.1 58.59, -0.13 58.01, 0 55.75 M0 55.75 C0.33 41.43, 0.59 21.48, 0 4.25 M0 55.75 C-0.5 37.24, -0.37 18.49, 0 4.25 M0 4.25 C0.87 1.15, -0.14 0.42, 4.25 0 M0 4.25 C-1.82 3.7, 0.5 -0.58, 4.25 0" stroke="#000000" stroke-width="1" fill="none"></path></g><g stroke-linecap="round" transform="translate(201.5 693) rotate(0 8.5 30)"><path d="M3.73 -1.44 L14.62 1.4 L18.1 1.96 L17.01 53.94 L13.16 60.28 L3.79 60.54 L0.77 58.62 L-1 2.69 L1.95 -0.08 L3.03 -0.11" stroke="none" stroke-width="0" fill="#996917"></path><path d="M4.25 0 M4.25 0 C6.29 0.13, 9.73 0.24, 12.75 0 M4.25 0 C6.08 -0.18, 8.01 -0.12, 12.75 0 M12.75 0 C17.24 0.87, 16.73 -0.14, 17 4.25 M12.75 0 C16.07 -1.82, 19.28 0.5, 17 4.25 M17 4.25 C16.8 17.35, 14.91 32.9, 17 55.75 M17 4.25 C17.72 24.86, 18.03 45.14, 17 55.75 M17 55.75 C16.95 60.23, 15.16 58.91, 12.75 60 M17 55.75 C15.08 57.22, 13.66 61.61, 12.75 60 M12.75 60 C9.79 59.99, 8.29 60.48, 4.25 60 M12.75 60 C10.09 59.64, 8.03 59.9, 4.25 60 M4.25 60 C3.19 58.98, 1.6 58.08, 0 55.75 M4.25 60 C1.92 58.5, 0.52 59.76, 0 55.75 M0 55.75 C-1.85 41.44, -2.26 25.22, 0 4.25 M0 55.75 C-0.03 45.21, 0.45 32.43, 0 4.25 M0 4.25 C0.51 1.86, 1.98 -1.88, 4.25 0 M0 4.25 C-1.22 0.55, 1.46 1.73, 4.25 0" stroke="#000000" stroke-width="1" fill="none"></path></g><g stroke-linecap="round"><g transform="translate(394 651) rotate(0 -113.47649400768802 -44.57092677862306)"><path d="M0.84 0.34 C-29.36 -14.39, -142.8 -87.33, -180.83 -89.43 C-218.86 -91.53, -219.66 -25.27, -227.36 -12.27 M-0.18 -0.53 C-30.55 -14.99, -143.75 -86.35, -181.69 -88.12 C-219.62 -89.88, -220.37 -23.49, -227.79 -11.1" stroke="#000000" stroke-width="1" fill="none"></path></g><g transform="translate(394 651) rotate(0 -113.47649400768802 -44.57092677862306)"><path d="M-229.78 -40.71 C-230.49 -30.15, -229.4 -19.76, -226.92 -11.37 M-229.35 -41.39 C-229.96 -34.92, -229.87 -27.62, -228.32 -11.99" stroke="#000000" stroke-width="1" fill="none"></path></g><g transform="translate(394 651) rotate(0 -113.47649400768802 -44.57092677862306)"><path d="M-209.97 -35.35 C-217.13 -26.41, -222.53 -17.78, -226.92 -11.37 M-209.54 -36.03 C-214.57 -30.92, -218.88 -24.81, -228.32 -11.99" stroke="#000000" stroke-width="1" fill="none"></path></g></g><mask></mask><g stroke-linecap="round" transform="translate(234 33) rotate(0 34.5 31.5)"><path d="M45.22 6.19 L66.38 28.27 L67.53 30.66 L60.22 39.31 L41.97 56.73 L36.87 62.21 L30.17 59.58 L9.12 41.1 L1.12 30.3 L5.18 24.67 L31.79 2.98 L35.48 2.52 L43.16 6.05" stroke="none" stroke-width="0" fill="#15aabf"></path><path d="M43.75 8 M43.75 8 C49.54 15.89, 54.46 20.48, 60.25 24 M43.75 8 C48.97 12.02, 53.29 16.9, 60.25 24 M60.25 24 C70.97 32.91, 67.65 32.73, 60.25 40 M60.25 24 C69.26 32.85, 69.25 30.81, 60.25 40 M60.25 40 C55.03 43.6, 47.56 50.19, 43.75 55 M60.25 40 C53.22 45.9, 48.45 52.2, 43.75 55 M43.75 55 C33.45 64.53, 36.11 63.48, 26.25 55 M43.75 55 C33.99 61.24, 36.42 61.09, 26.25 55 M26.25 55 C19.71 48.71, 12.48 45.02, 8.75 40 M26.25 55 C21.35 51.62, 16.53 46.18, 8.75 40 M8.75 40 C1.86 30.68, -0.36 30.77, 8.75 24 M8.75 40 C1 32.5, 0.43 33.73, 8.75 24 M8.75 24 C13 19.35, 20.75 13.23, 26.25 8 M8.75 24 C13.77 19.76, 18.89 12.89, 26.25 8 M26.25 8 C35.12 1.93, 36.11 -0.02, 43.75 8 M26.25 8 C35.33 -0.13, 34.18 -1.53, 43.75 8" stroke="#000000" stroke-width="1" fill="none"></path></g><g transform="translate(264 47) rotate(0 4.5 18.5)"><text x="4.5" y="26" font-family="Virgil, Segoe UI Emoji" font-size="28px" fill="#000000" text-anchor="middle" style="white-space: pre;" direction="ltr">1</text></g><g stroke-linecap="round" transform="translate(579.5 594.5) rotate(0 34.5 31.5)"><path d="M42.15 8.9 L65.26 28.16 L66.06 31.54 L61.84 40.44 L40.06 59.55 L36.92 59.24 L29.99 61.16 L9 40.24 L4.03 33.49 L6.97 24.69 L33.37 1.71 L36.99 3.72 L44.18 6.25" stroke="none" stroke-width="0" fill="#15aabf"></path><path d="M43.75 8 M43.75 8 C48.45 10.1, 50.5 14.77, 60.25 24 M43.75 8 C49.11 13.64, 55.47 19.85, 60.25 24 M60.25 24 C70.56 30.54, 70.31 32.63, 60.25 40 M60.25 24 C66.9 33.54, 68.02 30.14, 60.25 40 M60.25 40 C53.59 44.83, 51.92 47.37, 43.75 55 M60.25 40 C55.5 43.79, 52.11 48.31, 43.75 55 M43.75 55 C34.67 61.85, 35.81 63.42, 26.25 55 M43.75 55 C32.98 63.52, 33.03 61.13, 26.25 55 M26.25 55 C22.81 53.06, 17.8 48.73, 8.75 40 M26.25 55 C22.49 50.5, 18.11 47.53, 8.75 40 M8.75 40 C1.51 31.76, -1.18 31.07, 8.75 24 M8.75 40 C-0.02 32.77, -0.68 34.19, 8.75 24 M8.75 24 C11.32 18.18, 18.23 14.95, 26.25 8 M8.75 24 C13.21 20.51, 17.63 15.31, 26.25 8 M26.25 8 C34.14 0.68, 36.95 0.24, 43.75 8 M26.25 8 C34.37 2.25, 36.13 -0.79, 43.75 8" stroke="#000000" stroke-width="1" fill="none"></path></g><g transform="translate(603.5 608.5) rotate(0 10.5 18.5)"><text x="10.5" y="26" font-family="Virgil, Segoe UI Emoji" font-size="28px" fill="#000000" text-anchor="middle" style="white-space: pre;" direction="ltr">2</text></g><g stroke-linecap="round" transform="translate(326.5 650.5) rotate(0 34.5 31.5)"><path d="M42.13 7.89 L65.08 28.77 L65.02 32.41 L61.65 38.53 L39.95 59.38 L33.14 59.65 L31.66 59.82 L10.36 39.67 L1.03 32.81 L6.3 24.9 L33.77 0.66 L35.05 0.71 L44.39 8.18" stroke="none" stroke-width="0" fill="#15aabf"></path><path d="M43.75 8 M43.75 8 C49.36 11.81, 54.22 16.35, 60.25 24 M43.75 8 C48.61 13.99, 54.25 17.86, 60.25 24 M60.25 24 C68.07 31.98, 69.67 31.41, 60.25 40 M60.25 24 C71.19 30.91, 70.97 31.62, 60.25 40 M60.25 40 C55.57 42.23, 52.26 45.4, 43.75 55 M60.25 40 C54.39 44.19, 50.54 50.19, 43.75 55 M43.75 55 C35.24 62.45, 36.96 63.98, 26.25 55 M43.75 55 C34.21 65.12, 34.88 63.7, 26.25 55 M26.25 55 C20.46 50.2, 12.5 44.16, 8.75 40 M26.25 55 C22.4 51.9, 19.74 48.08, 8.75 40 M8.75 40 C-1.56 30.79, -0.16 33.86, 8.75 24 M8.75 40 C-0.96 31.11, -1.28 32.08, 8.75 24 M8.75 24 C13.18 20.14, 17.47 16.36, 26.25 8 M8.75 24 C13.59 19.19, 18.33 15.75, 26.25 8 M26.25 8 C35.59 1.59, 35.92 -1.33, 43.75 8 M26.25 8 C37.11 -0.22, 35.99 -0.46, 43.75 8" stroke="#000000" stroke-width="1" fill="none"></path></g><g transform="translate(351 664.5) rotate(0 10 18.5)"><text x="10" y="26" font-family="Virgil, Segoe UI Emoji" font-size="28px" fill="#000000" text-anchor="middle" style="white-space: pre;" direction="ltr">3</text></g><g stroke-linecap="round" transform="translate(483.5 304.5) rotate(0 34.5 31.5)"><path d="M42.21 9.37 L63.52 30.74 L66.36 33.89 L59.74 39.35 L39.72 58.42 L36.35 61.1 L30.61 59.41 L9.69 38.95 L3.46 33.38 L6.35 26.66 L31.55 4.08 L37.96 1.05 L44.94 9.75" stroke="none" stroke-width="0" fill="#15aabf"></path><path d="M43.75 8 M43.75 8 C50.94 14.15, 56.05 21.18, 60.25 24 M43.75 8 C47.13 11.24, 49.76 14.15, 60.25 24 M60.25 24 C69.26 31.98, 69.81 30.23, 60.25 40 M60.25 24 C69.51 31.19, 67.18 34.04, 60.25 40 M60.25 40 C56.56 41.85, 53.11 48.97, 43.75 55 M60.25 40 C55.34 45.76, 49.27 50.33, 43.75 55 M43.75 55 C36.67 61.55, 33.59 61.17, 26.25 55 M43.75 55 C33.1 62.24, 35.16 62.06, 26.25 55 M26.25 55 C23.04 50.39, 18.45 49.24, 8.75 40 M26.25 55 C23.23 51.68, 18 49.02, 8.75 40 M8.75 40 C-1.45 30.87, -0.35 32.18, 8.75 24 M8.75 40 C1.63 34.13, 1.31 32.44, 8.75 24 M8.75 24 C13.7 17.98, 18.44 15.34, 26.25 8 M8.75 24 C15.49 17.58, 20.08 13.27, 26.25 8 M26.25 8 C33.93 -0.15, 35.96 -1.07, 43.75 8 M26.25 8 C36.84 0.27, 35.48 -1.81, 43.75 8" stroke="#000000" stroke-width="1" fill="none"></path></g><g transform="translate(508.5 318.5) rotate(0 9.5 18.5)"><text x="9.5" y="26" font-family="Virgil, Segoe UI Emoji" font-size="28px" fill="#000000" text-anchor="middle" style="white-space: pre;" direction="ltr">4</text></g><g stroke-linecap="round" transform="translate(95.5 542.5) rotate(0 34.5 31.5)"><path d="M43.64 7.29 L66.57 27.3 L65.68 31.65 L60.43 41.42 L42.7 58.76 L35.38 61.22 L32.97 59.41 L8.37 38.96 L1.1 33.3 L6.74 28.42 L34.74 4.13 L35.06 1.32 L44.48 6.93" stroke="none" stroke-width="0" fill="#15aabf"></path><path d="M43.75 8 M43.75 8 C50.25 13, 53.89 15.87, 60.25 24 M43.75 8 C48.43 11.9, 52.37 17.75, 60.25 24 M60.25 24 C69.65 31.8, 69.95 32, 60.25 40 M60.25 24 C68.91 33.66, 68.73 32.61, 60.25 40 M60.25 40 C54.09 45.41, 46.71 51.87, 43.75 55 M60.25 40 C54.83 46.58, 48.35 51.95, 43.75 55 M43.75 55 C33.38 64.63, 34.48 62.12, 26.25 55 M43.75 55 C36.37 62.52, 37 63.46, 26.25 55 M26.25 55 C20.55 50.67, 12.93 46.29, 8.75 40 M26.25 55 C19.78 48.98, 13.88 45.02, 8.75 40 M8.75 40 C-0.73 32.54, -0.78 33.2, 8.75 24 M8.75 40 C-1.95 30.05, -0.45 30.18, 8.75 24 M8.75 24 C14.23 19.37, 19.61 12.86, 26.25 8 M8.75 24 C15.51 18.03, 21.17 12.05, 26.25 8 M26.25 8 C35.81 -1.87, 33.94 1.35, 43.75 8 M26.25 8 C32.99 -1.95, 36.76 -1.28, 43.75 8" stroke="#000000" stroke-width="1" fill="none"></path></g><g transform="translate(121 556.5) rotate(0 9 18.5)"><text x="9" y="26" font-family="Virgil, Segoe UI Emoji" font-size="28px" fill="#000000" text-anchor="middle" style="white-space: pre;" direction="ltr">5</text></g><g transform="translate(805 30.5) rotate(0 61 17.5)"><text x="0" y="25" font-family="Virgil, Segoe UI Emoji" font-size="28px" fill="#000000" text-anchor="start" style="white-space: pre;" direction="ltr">Score: 13</text></g><g transform="translate(467.5 25.5) rotate(0 33.5 22.5)"><text x="0" y="32" font-family="Virgil, Segoe UI Emoji" font-size="36px" fill="#000000" text-anchor="start" style="white-space: pre;" direction="ltr">1:29</text></g><g stroke-linecap="round" transform="translate(548.5 23.5) rotate(0 34.5 31.5)"><path d="M42.91 6.43 L64.98 28.05 L65.06 32.39 L59.09 38.96 L40.12 58.67 L34.9 62.11 L30.45 59.25 L6.91 39.39 L3.72 33.98 L7.05 27.29 L33.67 3.75 L35.49 1.18 L43.96 9.76" stroke="none" stroke-width="0" fill="#15aabf"></path><path d="M43.75 8 M43.75 8 C48.92 15.08, 57.49 18.79, 60.25 24 M43.75 8 C47.37 12.92, 52.27 16.09, 60.25 24 M60.25 24 C68.36 32.57, 69.12 33.67, 60.25 40 M60.25 24 C70.82 30.09, 69.19 31.59, 60.25 40 M60.25 40 C56.22 43.01, 50.63 50.02, 43.75 55 M60.25 40 C54.98 43.8, 50.14 50.2, 43.75 55 M43.75 55 C35.28 61.8, 35.15 64.53, 26.25 55 M43.75 55 C33.84 60.93, 33.64 61.04, 26.25 55 M26.25 55 C21.36 47.99, 11.22 44.39, 8.75 40 M26.25 55 C22.84 51.43, 18.63 48.84, 8.75 40 M8.75 40 C1.57 32.4, -1.87 32.78, 8.75 24 M8.75 40 C-0.35 33.18, 0.82 33.42, 8.75 24 M8.75 24 C14.26 20.39, 15.4 17.3, 26.25 8 M8.75 24 C14.3 18.12, 20.96 13.31, 26.25 8 M26.25 8 C35.8 -1.88, 36.97 1.6, 43.75 8 M26.25 8 C33.73 0.57, 34.16 1.96, 43.75 8" stroke="#000000" stroke-width="1" fill="none"></path></g><g transform="translate(573.5 37.5) rotate(0 9.5 18.5)"><text x="9.5" y="26" font-family="Virgil, Segoe UI Emoji" font-size="28px" fill="#000000" text-anchor="middle" style="white-space: pre;" direction="ltr">6</text></g><g stroke-linecap="round" transform="translate(866.5 77.5) rotate(0 34.5 31.5)"><path d="M45.08 7.01 L64.49 30.33 L68.3 31.93 L58.3 38.31 L42.28 58.84 L34.92 59.63 L32.84 60.91 L7.74 38.52 L0.96 32.41 L7.33 26.95 L31.4 3.84 L36.36 0.98 L44.77 9.14" stroke="none" stroke-width="0" fill="#15aabf"></path><path d="M43.75 8 M43.75 8 C46.45 11.01, 51.78 13.04, 60.25 24 M43.75 8 C49.72 13.96, 56.38 19.19, 60.25 24 M60.25 24 C68.42 32.71, 68.03 31.4, 60.25 40 M60.25 24 C67.14 33.43, 69.3 32.05, 60.25 40 M60.25 40 C57.26 44.37, 50.6 48.56, 43.75 55 M60.25 40 C53.79 44.44, 48.87 50.05, 43.75 55 M43.75 55 C34.06 61.18, 36.3 61.69, 26.25 55 M43.75 55 C36.7 60.96, 35.7 62.84, 26.25 55 M26.25 55 C20.12 51.85, 16.48 45.84, 8.75 40 M26.25 55 C19.53 48.96, 12.91 44.71, 8.75 40 M8.75 40 C-1.83 33.77, -1.25 31.04, 8.75 24 M8.75 40 C1.09 30.72, 0.24 32.49, 8.75 24 M8.75 24 C14.13 20.86, 17.71 17.48, 26.25 8 M8.75 24 C14.99 17.94, 22.75 10.55, 26.25 8 M26.25 8 C33.64 1.35, 33.01 -0.7, 43.75 8 M26.25 8 C35.28 -0.04, 36.6 -0.77, 43.75 8" stroke="#000000" stroke-width="1" fill="none"></path></g><g transform="translate(893 91.5) rotate(0 8 18.5)"><text x="8" y="26" font-family="Virgil, Segoe UI Emoji" font-size="28px" fill="#000000" text-anchor="middle" style="white-space: pre;" direction="ltr">7</text></g></svg>